<?xml version="1.0" encoding="utf-8"?>
<!-- Generator: Adobe Illustrator 22.1.0, SVG Export Plug-In . SVG Version: 6.00 Build 0)  -->
<svg version="1.1" id="Camada_1" xmlns="http://www.w3.org/2000/svg" xmlns:xlink="http://www.w3.org/1999/xlink" x="0px" y="0px"
	 viewBox="0 0 151.4 37.8" style="enable-background:new 0 0 151.4 37.8;" xml:space="preserve">
<style type="text/css">
	.st0{fill-rule:evenodd;clip-rule:evenodd;}
</style>
<g>
	<g>
		<g>
			<path class="st0" d="M44.4,37h6.2v-9.9c0-5,3.1-7.2,6.4-7.2c3,0,5.3,1.2,5.3,6.2V37h6.2V24.4c0-6.6-5.7-8.6-9.4-8.6
				c-3.7,0-6.6,1.3-8.6,4.2h-0.1c0-1.1-0.1-2.2-0.2-3.4h-5.9c0.1,1.3,0.2,3.1,0.2,4.8V37L44.4,37z"/>
			<path class="st0" d="M41.5,16.6h-6.2v9.9c0,5-3.1,7.2-6.4,7.2c-3,0-5.3-1.2-5.3-6.2V16.6h-6.2v12.6c0,6.6,5.7,8.6,9.4,8.6
				c3.7,0,6.6-1.3,8.6-4.2h0.1c0,1.1,0.1,2.2,0.2,3.4h5.9c0-1.3-0.2-3.1-0.2-4.8V16.6L41.5,16.6z"/>
			<path class="st0" d="M5.3,37h6.2V20.5h6.4v-3.9h-6.4V16c0-3.3,0.9-4.7,5.1-4.7c1,0,2,0.1,2.8,0.2V7.6c-1.5-0.2-3.6-0.2-5.3-0.2
				c-5.9,0-8.8,2-8.8,7.5v1.8H0v3.9h5.3V37L5.3,37z"/>
			<path class="st0" d="M96.1,37h6.2v-8.3c0-5.4,2.5-8.1,7.2-8.2v0l3.9,0v10.1c0,4.8,1.9,6.8,8.1,6.8c1.7,0,3.6-0.2,5.3-0.4v-3.9
				c-0.9,0.2-2.5,0.4-3.8,0.4c-2.4,0-3.3-1.2-3.3-3.5v-9.5h7.3v-3.9h-7.3v-6.2l-6.2,1.9v4.4l-3.5,0l0,0c-3.3-0.1-6.2,0.3-7.7,3.7
				h-0.1c0-1.3-0.1-2.5-0.2-3.7H96c0.1,1.4,0.2,3.2,0.2,5.1V37L96.1,37z"/>
			<path class="st0" d="M93.4,24.6c0-7.2-5.9-8.8-11.7-8.8c-5.3,0-11,1.3-11.6,6.5h6.4c0.2-1.6,2-2.9,5-2.9c3.1,0,5.7,0.9,5.7,4.6
				h-4.9c-7.8,0-13.9,1.1-13.9,7.5c0,2.9,2.5,6.3,9.7,6.3c4,0,7.1-1,9.7-3.6c0,0.9,0,1.9,0.2,2.8h5.7c-0.1-1.4-0.2-2.5-0.2-3.9V24.6
				L93.4,24.6z M87.2,27.7c-0.1,4.9-4.7,6.7-7.7,6.7c-3.5,0-4.7-1.9-4.7-3.3c0-2.4,2.6-3.4,7.3-3.4H87.2L87.2,27.7z"/>
			<path class="st0" d="M151.4,28.2v-1.3c0-8.5-6.6-11.1-12.5-11.1c-10.4,0-13.3,5.4-13.3,11c0,5.6,2.9,11,13.3,11
				c4.2,0,11.4-1.2,12-6.3h-6.6c-0.7,2-3.4,2.6-5.2,2.6c-3.5,0-7-1.7-7-5.9H151.4L151.4,28.2z M132,24.5c0.4-3.5,3.4-5.1,6.5-5.1
				c3.4,0,6.2,1.3,6.5,5.1H132L132,24.5z"/>
			<path class="st0" d="M20.1,7.4V4.9h2.4v-1h-2.4V2.5h2.5v-1h-3.8v5.9H20.1L20.1,7.4z M27.2,1.5v3.2c0,1,0,1.9-1.3,1.9
				c-1.2,0-1.3-0.9-1.3-1.9V1.5h-1.3v3.7c0,1.6,1.1,2.3,2.5,2.3c1.4,0,2.5-0.8,2.5-2.3V1.5H27.2L27.2,1.5z M34.9,7.4V1.5h-1.2v4.6
				l0,0l-2.2-4.6h-1.9v5.9h1.2V2.5l0,0l2.3,4.9H34.9L34.9,7.4z M37.2,2.5h0.6c1.5,0,1.7,1,1.7,2s-0.2,2-1.7,2h-0.6V2.5L37.2,2.5z
				 M35.9,7.4h2c1.8,0,3-0.9,3-2.9c0-2-1.1-2.9-3-2.9h-2V7.4L35.9,7.4z M42.6,7.4L43,6.2h2.3l0.4,1.2H47l-2-5.9h-1.5l-2.1,5.9H42.6
				L42.6,7.4z M43.3,5.2l0.9-2.5h0L45,5.2H43.3L43.3,5.2z M52.3,3.4c-0.1-1.5-1.1-2-2.5-2c-1.7,0-2.5,1.3-2.5,3c0,1.6,0.7,2.9,2.2,3
				l-0.4,0.6c0.3,0.3,0.1,0.1,0.5,0.1c0.2,0,0.4,0.1,0.4,0.3c0,0.2-0.3,0.3-0.5,0.3c-0.2,0-0.4-0.1-0.5-0.1c0,0-0.1,0.3-0.2,0.3
				c0.3,0.1,0.5,0.2,0.8,0.2c0.4,0,1-0.2,1-0.7c0-0.4-0.3-0.6-0.7-0.6c-0.1,0-0.2,0-0.2,0l0,0L50,7.5c1.3,0,2.3-0.6,2.3-2H51
				c0,0.6-0.4,1.1-1.1,1.1c-0.9,0-1.1-1.3-1.1-2.1c0-0.8,0.2-2.1,1.1-2.1c0.8,0,1.1,0.5,1.1,1.1H52.3L52.3,3.4z M54.5,1
				c0.1-0.2,0.2-0.4,0.4-0.4c0.2,0,0.3,0.1,0.5,0.1C55.7,0.9,55.9,1,56.1,1c0.6,0,0.9-0.5,0.9-1h-0.4c-0.1,0.2-0.1,0.4-0.4,0.4
				c-0.2,0-0.4-0.1-0.6-0.2c-0.2-0.1-0.4-0.2-0.6-0.2c-0.6,0-0.9,0.5-0.9,1H54.5L54.5,1z M53.8,7.4l0.4-1.2h2.3L57,7.4h1.3l-2-5.9
				h-1.5l-2.1,5.9H53.8L53.8,7.4z M54.6,5.2l0.9-2.5h0l0.8,2.5H54.6L54.6,5.2z M61.5,7.5c1.9,0,2.8-1.3,2.8-3.1c0-1.7-0.9-3-2.8-3
				c-1.9,0-2.8,1.3-2.8,3C58.7,6.2,59.6,7.5,61.5,7.5L61.5,7.5z M61.5,2.3c1.2,0,1.5,1.1,1.5,2.1s-0.2,2.1-1.5,2.1
				c-1.2,0-1.5-1.1-1.5-2.1S60.3,2.3,61.5,2.3L61.5,2.3z M72.8,7.4V1.5h-1.2v4.6l0,0l-2.2-4.6h-1.9v5.9h1.2V2.5l0,0L71,7.4H72.8
				L72.8,7.4z M74.6,7.4L75,6.2h2.3l0.4,1.2H79l-2-5.9h-1.5l-2.1,5.9H74.6L74.6,7.4z M75.3,5.2l0.9-2.5h0L77,5.2H75.3L75.3,5.2z
				 M84.3,3.4c-0.1-1.5-1.1-2-2.5-2c-1.7,0-2.5,1.3-2.5,3s0.8,3.1,2.5,3.1c1.3,0,2.4-0.6,2.5-2H83c0,0.6-0.4,1.1-1.1,1.1
				c-0.9,0-1.1-1.3-1.1-2.1c0-0.8,0.2-2.1,1.1-2.1c0.8,0,1.1,0.5,1.1,1.1H84.3L84.3,3.4z M86.3,1.5H85v5.9h1.3V1.5L86.3,1.5z
				 M89.9,7.5c1.9,0,2.8-1.3,2.8-3.1c0-1.7-0.9-3-2.8-3c-1.9,0-2.8,1.3-2.8,3C87.1,6.2,88,7.5,89.9,7.5L89.9,7.5z M89.9,2.3
				c1.2,0,1.5,1.1,1.5,2.1s-0.2,2.1-1.5,2.1c-1.2,0-1.5-1.1-1.5-2.1S88.7,2.3,89.9,2.3L89.9,2.3z M98.9,7.4V1.5h-1.2v4.6l0,0
				l-2.2-4.6h-1.9v5.9h1.2V2.5l0,0l2.3,4.9H98.9L98.9,7.4z M100.7,7.4l0.4-1.2h2.3l0.4,1.2h1.3l-2-5.9h-1.5l-2.1,5.9H100.7
				L100.7,7.4z M101.5,5.2l0.9-2.5h0l0.8,2.5H101.5L101.5,5.2z M109.6,7.4v-1h-2.5V1.5h-1.3v5.9H109.6L109.6,7.4z M113.8,2.5h0.6
				c1.5,0,1.7,1,1.7,2s-0.2,2-1.7,2h-0.6V2.5L113.8,2.5z M112.5,7.4h2c1.8,0,3-0.9,3-2.9c0-2-1.1-2.9-3-2.9h-2V7.4L112.5,7.4z
				 M118.3,7.4h4v-1h-2.8V4.9h2.5v-1h-2.5V2.5h2.7v-1h-3.9V7.4L118.3,7.4z M126.4,7.4l0.4-1.2h2.3l0.4,1.2h1.3l-2-5.9h-1.5l-2.1,5.9
				H126.4L126.4,7.4z M127.1,5.2l0.9-2.5h0l0.8,2.5H127.1L127.1,5.2z M132.7,2.5h1.1c0.6,0,0.9,0.2,0.9,0.7s-0.3,0.8-0.9,0.8h-1.1
				V2.5L132.7,2.5z M132.7,5h1.3c0.4,0,0.5,0.5,0.5,0.8c0.1,0.5,0.1,1.1,0.2,1.6h1.4c-0.2-0.3-0.3-1-0.3-1.4
				c-0.1-0.8-0.1-1.4-1.1-1.5v0c0.7-0.2,1.2-0.7,1.2-1.4c0-1.2-1-1.5-2-1.5h-2.5v5.9h1.3V5L132.7,5z M136.3,2.5h1.7v4.9h1.3V2.5h1.7
				v-1h-4.7V2.5L136.3,2.5z M141.6,7.4h4v-1h-2.8V4.9h2.5v-1h-2.5V2.5h2.7v-1h-3.9V7.4L141.6,7.4z M151,3.2c0-1.2-0.9-1.8-2-1.8
				c-1.2,0-2.4,0.6-2.4,1.9c0,1,1.1,1.4,1.9,1.6c0.5,0.1,1.3,0.2,1.3,0.9c0,0.6-0.7,0.8-1.2,0.8c-0.7,0-1-0.4-1-1.1h-1.3
				c0,1.5,0.9,2,2.2,2c1.3,0,2.5-0.5,2.5-2c0-1.2-1.3-1.4-2.2-1.7c-0.5-0.1-1.1-0.2-1.1-0.8c0-0.5,0.5-0.8,0.9-0.8
				c0.6,0,0.9,0.3,1,0.9H151L151,3.2z"/>
		</g>
	</g>
</g>
</svg>
