<?xml version="1.0" encoding="utf-8"?>
<!-- Generator: Adobe Illustrator 22.1.0, SVG Export Plug-In . SVG Version: 6.00 Build 0)  -->
<svg version="1.1" xmlns="http://www.w3.org/2000/svg" xmlns:xlink="http://www.w3.org/1999/xlink" x="0px" y="0px"
	 viewBox="0 0 1050.1 171.3" style="enable-background:new 0 0 1050.1 171.3;" xml:space="preserve">
<style type="text/css">
	.st0{fill-rule:evenodd;clip-rule:evenodd;fill:#FFFFFF;}
	.st1{fill:#FFFFFF;}
</style>
<g id="Layer_2">
</g>
<g id="Layer_1">
	<g>
		<g>
			<g>
				<path class="st0" d="M148,120.1h11.8v-18.7c0-9.4,6-13.7,12.1-13.7c5.6,0,10.1,2.2,10.1,11.8v20.6h11.8V96.2
					c0-12.6-10.8-16.4-17.8-16.4c-7.1,0-12.5,2.4-16.4,7.9h-0.2c0-2.2-0.2-4.3-0.3-6.4h-11.3c0.2,2.5,0.3,5.8,0.3,9.2V120.1
					L148,120.1z"/>
				<path class="st0" d="M142.6,81.2h-11.8V100c0,9.4-6,13.7-12.1,13.7c-5.6,0-10.1-2.2-10.1-11.8V81.2H96.9v23.9
					c0,12.6,10.8,16.4,17.8,16.4c7.1,0,12.5-2.4,16.4-7.9h0.2c0,2.2,0.2,4.3,0.3,6.4h11.3c0-2.5-0.3-5.8-0.3-9.2V81.2L142.6,81.2z"
					/>
				<path class="st0" d="M73.8,120.1h11.8V88.7h12.1v-7.4H85.6v-1.2c0-6.3,1.8-8.9,9.6-8.9c1.9,0,3.9,0.2,5.3,0.3v-7.3
					c-2.8-0.3-6.8-0.5-10.1-0.5c-11.1,0-16.6,3.8-16.6,14.2v3.3H63.7v7.4h10.1V120.1L73.8,120.1z"/>
				<path class="st0" d="M246.4,120.1h11.8v-15.7c0-10.3,4.8-15.3,13.6-15.7v0l7.4,0v19.2c0,9.1,3.6,12.9,15.3,12.9
					c3.3,0,6.8-0.3,10-0.7v-7.4c-1.6,0.5-4.7,0.7-7.3,0.7c-4.5,0-6.3-2.3-6.3-6.6V88.7h13.9v-7.4H291V69.5L279.2,73v8.3l-6.7,0l0,0
					c-6.3-0.2-11.8,0.5-14.6,7h-0.2c0-2.4-0.2-4.7-0.3-7.1h-11.3c0.2,2.6,0.3,6,0.3,9.8V120.1L246.4,120.1z"/>
				<path class="st0" d="M241.1,96.5c0-13.6-11.3-16.7-22.2-16.7c-10.1,0-20.8,2.4-22,12.4h12.2c0.5-3,3.7-5.4,9.4-5.4
					c5.9,0,10.8,1.8,10.8,8.7H220c-14.9,0-26.5,2.1-26.5,14.2c0,5.6,4.7,11.9,18.3,11.9c7.5,0,13.5-1.9,18.4-6.8
					c0,1.8,0.1,3.6,0.3,5.3h10.8c-0.2-2.6-0.3-4.8-0.3-7.4V96.5L241.1,96.5z M229.4,102.4c-0.2,9.3-8.9,12.7-14.7,12.7
					c-6.7,0-8.9-3.6-8.9-6.2c0-4.6,5-6.5,13.9-6.5H229.4L229.4,102.4z"/>
				<path class="st0" d="M351.4,103.3v-2.4c0-16.2-12.6-21.1-23.8-21.1c-19.7,0-25.3,10.2-25.3,20.9c0,10.7,5.6,20.9,25.3,20.9
					c8,0,21.6-2.3,22.8-11.9h-12.5c-1.2,3.7-6.4,5-9.9,5c-6.7,0-13.4-3.2-13.4-11.3H351.4L351.4,103.3z M314.5,96.3
					c0.7-6.7,6.5-9.6,12.3-9.6c6.4,0,11.7,2.6,12.4,9.6H314.5L314.5,96.3z"/>
				<path class="st0" d="M101.9,63.8V59h4.5v-1.8h-4.5v-2.7h4.8v-1.8h-7.2v11.1H101.9L101.9,63.8z M115.4,52.7v6
					c0,1.9-0.1,3.6-2.4,3.6c-2.3,0-2.4-1.7-2.4-3.6v-6h-2.4v7c0,3,2.1,4.4,4.8,4.4c2.7,0,4.8-1.4,4.8-4.4v-7H115.4L115.4,52.7z
					 M130.1,63.8V52.7h-2.2v8.7l0,0l-4.2-8.8H120v11.1h2.2v-9.2l0,0l4.4,9.2H130.1L130.1,63.8z M134.4,54.5h1.2
					c2.8,0,3.3,1.9,3.3,3.7c0,1.8-0.4,3.7-3.3,3.7h-1.2V54.5L134.4,54.5z M132,63.8h3.8c3.5,0,5.6-1.7,5.6-5.6
					c0-3.9-2.2-5.6-5.6-5.6H132V63.8L132,63.8z M144.6,63.8l0.8-2.4h4.4l0.8,2.4h2.4l-3.9-11.1h-2.8l-4,11.1H144.6L144.6,63.8z
					 M146.1,59.6l1.6-4.7h0l1.5,4.7H146.1L146.1,59.6z M163.1,56.3c-0.1-2.8-2.1-3.8-4.7-3.8c-3.2,0-4.7,2.5-4.7,5.8
					c0,3.1,1.3,5.5,4.2,5.8l-0.8,1.1c0.5,0.6,0.2,0.2,0.9,0.2c0.3,0,0.7,0.2,0.7,0.6c0,0.4-0.5,0.6-0.9,0.6c-0.4,0-0.7-0.2-1-0.3
					c0,0.1-0.3,0.5-0.3,0.6c0.5,0.2,1,0.3,1.5,0.3c0.8,0,1.9-0.4,1.9-1.4c0-0.8-0.6-1.1-1.4-1.1c-0.2,0-0.3,0-0.4,0.1l0,0l0.5-0.7
					c2.5-0.1,4.3-1.1,4.4-3.8h-2.5c0,1.2-0.7,2.1-2.1,2.1c-1.7,0-2.1-2.5-2.1-4.1c0-1.6,0.4-4.1,2.1-4.1c1.4,0,2.1,0.9,2.1,2.1
					H163.1L163.1,56.3z M167.3,51.7c0.2-0.4,0.4-0.7,0.8-0.7c0.3,0,0.7,0.1,1,0.3c0.4,0.1,0.7,0.3,1.1,0.3c1.1,0,1.7-0.9,1.7-1.8
					h-0.8c-0.1,0.3-0.3,0.7-0.7,0.7c-0.4,0-0.7-0.2-1.1-0.3c-0.4-0.2-0.7-0.3-1.1-0.3c-1.1,0-1.6,0.9-1.8,1.9H167.3L167.3,51.7z
					 M166,63.8l0.8-2.4h4.4l0.8,2.4h2.4l-3.9-11.1h-2.8l-4,11.1H166L166,63.8z M167.5,59.6l1.6-4.7h0l1.5,4.7H167.5L167.5,59.6z
					 M180.6,64c3.7,0,5.3-2.5,5.3-5.8c0-3.3-1.7-5.8-5.3-5.8c-3.7,0-5.3,2.5-5.3,5.8C175.3,61.5,177,64,180.6,64L180.6,64z
					 M180.6,54.1c2.4,0,2.8,2.2,2.8,4.1c0,1.9-0.4,4.1-2.8,4.1c-2.4,0-2.8-2.2-2.8-4.1C177.8,56.3,178.3,54.1,180.6,54.1L180.6,54.1
					z M202,63.8V52.7h-2.2v8.7l0,0l-4.2-8.8h-3.5v11.1h2.2v-9.2l0,0l4.4,9.2H202L202,63.8z M205.4,63.8l0.8-2.4h4.4l0.8,2.4h2.4
					L210,52.7h-2.8l-4,11.1H205.4L205.4,63.8z M206.8,59.6l1.6-4.7h0l1.5,4.7H206.8L206.8,59.6z M223.9,56.3
					c-0.1-2.8-2.1-3.8-4.7-3.8c-3.2,0-4.7,2.5-4.7,5.8c0,3.3,1.4,5.8,4.7,5.8c2.6,0,4.6-1.1,4.7-3.8h-2.5c0,1.2-0.7,2.1-2.1,2.1
					c-1.7,0-2.1-2.5-2.1-4.1c0-1.6,0.4-4.1,2.1-4.1c1.4,0,2.1,0.9,2.1,2.1H223.9L223.9,56.3z M227.7,52.7h-2.4v11.1h2.4V52.7
					L227.7,52.7z M234.6,64c3.7,0,5.3-2.5,5.3-5.8c0-3.3-1.7-5.8-5.3-5.8c-3.7,0-5.3,2.5-5.3,5.8C229.3,61.5,230.9,64,234.6,64
					L234.6,64z M234.6,54.1c2.4,0,2.8,2.2,2.8,4.1c0,1.9-0.4,4.1-2.8,4.1c-2.4,0-2.8-2.2-2.8-4.1C231.8,56.3,232.2,54.1,234.6,54.1
					L234.6,54.1z M251.7,63.8V52.7h-2.2v8.7l0,0l-4.2-8.8h-3.5v11.1h2.2v-9.2l0,0l4.4,9.2H251.7L251.7,63.8z M255.1,63.8l0.8-2.4
					h4.4l0.8,2.4h2.4l-3.9-11.1h-2.8l-4,11.1H255.1L255.1,63.8z M256.5,59.6l1.6-4.7h0l1.5,4.7H256.5L256.5,59.6z M272,63.8v-1.8
					h-4.8v-9.3h-2.4v11.1H272L272,63.8z M280,54.5h1.2c2.8,0,3.3,1.9,3.3,3.7c0,1.8-0.4,3.7-3.3,3.7H280V54.5L280,54.5z M277.6,63.8
					h3.8c3.5,0,5.6-1.7,5.6-5.6c0-3.9-2.2-5.6-5.6-5.6h-3.8V63.8L277.6,63.8z M288.6,63.8h7.6v-1.8H291v-3h4.7v-1.8H291v-2.6h5.1
					v-1.8h-7.5V63.8L288.6,63.8z M303.9,63.8l0.8-2.4h4.4l0.8,2.4h2.4l-3.9-11.1h-2.8l-4,11.1H303.9L303.9,63.8z M305.3,59.6
					l1.6-4.7h0l1.5,4.7H305.3L305.3,59.6z M315.8,54.5h2c1,0,1.7,0.4,1.7,1.4c0,1-0.6,1.5-1.7,1.5h-2V54.5L315.8,54.5z M315.8,59.3
					h2.5c0.8,0,0.9,0.9,1,1.5c0.1,1,0.2,2,0.4,3h2.6c-0.4-0.6-0.5-1.9-0.6-2.6c-0.2-1.5-0.2-2.7-2-2.9v0c1.4-0.3,2.3-1.2,2.3-2.7
					c0-2.3-2-2.9-3.9-2.9h-4.7v11.1h2.4V59.3L315.8,59.3z M322.7,54.5h3.3v9.3h2.4v-9.3h3.3v-1.8h-9V54.5L322.7,54.5z M332.8,63.8
					h7.6v-1.8h-5.2v-3h4.7v-1.8h-4.7v-2.6h5.1v-1.8h-7.5V63.8L332.8,63.8z M350.6,55.8c0-2.2-1.7-3.4-3.8-3.4
					c-2.3,0-4.6,1.1-4.6,3.7c0,2,2.1,2.7,3.7,3.1c1,0.2,2.5,0.3,2.5,1.6c0,1.2-1.3,1.5-2.2,1.5c-1.2,0-2-0.8-1.9-2.1h-2.4
					c-0.1,2.8,1.7,3.8,4.3,3.8c2.4,0,4.8-1,4.8-3.7c0-2.2-2.5-2.7-4.2-3.1c-1-0.2-2-0.4-2-1.6c0-1,0.9-1.4,1.8-1.4
					c1.2,0,1.8,0.6,1.8,1.7H350.6L350.6,55.8z"/>
			</g>
		</g>
	</g>
	<g>
		<path class="st1" d="M814.9,92c3.6-1.3,6.1-4.5,6.1-8.1c0-6.6-4.6-10.5-14.1-10.5c-4.3,0-8.7,0.1-13.4,0.2l-0.4,0.4v39l0.4,0.4
			c4.8,0.1,9,0.2,14.3,0.2c10.7,0,15.4-4.9,15.4-11.3C823.1,97.2,819.3,93.2,814.9,92z M799.9,78c2.1,0.1,5.1,0.1,6.9,0.1
			c6.1,0,7.3,3.1,7.3,6c0,2.7-1.4,6-7.4,6h-6.8V78z M807.7,108.8c-2.4,0-5.1,0.1-7.8,0.1V94.8h7.4c6.9,0,8.8,4.1,8.8,7
			C816.1,104.8,814.7,108.8,807.7,108.8z"/>
		<path class="st1" d="M856.4,107.6l-2.8-6.8c-0.9-2.3-2.5-4.2-4.6-4.9c4.7-1.3,8.3-5.2,8.3-10.6c0-7.7-5.7-11.9-14.7-11.9
			c-4.4,0-9,0.1-13.9,0.2l-0.4,0.4v39.3c1,0.2,2.3,0.2,3.4,0.2c1.1,0,2.4-0.1,3.4-0.2v-16h5.3c4,0,5.4,2.1,6.5,4.8l3.2,7.8
			c1,2.5,1.9,3.8,4.5,3.8c1.7,0,3.8-0.7,4.7-1.9C857.8,110.7,857,109.2,856.4,107.6z M842.2,92.3c-1.8,0-4.7,0.1-7.2,0.1V78.2
			c2.2,0.1,5.3,0.1,7.2,0.1c6.3,0,7.9,3.5,7.9,7C850.1,88.7,848.6,92.3,842.2,92.3z"/>
		<path class="st1" d="M885.3,73.6c-1-0.2-2.8-0.2-3.9-0.2c-1.1,0-2.9,0.1-3.9,0.2l-14.6,39.2l0.2,0.3c0.9,0.2,2.1,0.4,3.4,0.4
			c1,0,2.1-0.1,3-0.2l3.4-9.7c1.1,0,3.2,0.1,3.7,0.1h8.9c0.5,0,2.8-0.1,3.9-0.1l2.4,6.8c0.8,2.6,1.9,3.3,4.1,3.3c1.5,0,3-0.2,4-0.8
			L885.3,73.6z M884.3,98.6h-6.5c-0.5,0-2.3,0.1-3.3,0.1l3.7-10.5c0.7-2.1,1.9-5.8,2.5-8.4h0.3c0.9,3.1,2.3,7.1,3.4,10.5l3,8.4
			C886.5,98.7,884.7,98.6,884.3,98.6z"/>
		<path class="st1" d="M924.6,91.6l-7.5-2.9c-3.2-1.2-5.4-2.7-5.4-5.2c0-3.1,3-5.5,7.8-5.5c3.3,0,7.7,1.2,11,2.7
			c1.4-1.2,2.5-3.1,2.5-4.8c-3.4-1.5-8.3-3-13.7-3c-8.7,0-14.6,4.9-14.6,11.3c0,4.9,3.4,8,8.9,10l7.6,3c3.8,1.5,5.9,3.5,5.9,6.3
			c-0.1,3.2-3,5.5-8.3,5.5c-4.5,0-9.2-1.7-13-3.9c-1.4,1-2.7,3-2.9,4.8c4.3,2.7,10.1,4.4,15.5,4.4c10.7,0,15.8-5,15.8-11.7
			C934.3,97.2,930.1,93.7,924.6,91.6z"/>
		<g>
			<path class="st1" d="M945.7,73.4c-1,0-2.5,0.1-3.4,0.2v39.7c1,0.2,2.4,0.2,3.4,0.2c1,0,2.4-0.1,3.4-0.2V73.6
				C948.1,73.5,946.8,73.4,945.7,73.4z"/>
			<path class="st1" d="M973,107.9c-1.7,0-3.7,0.1-5.7,0.2V77.3c0-2.7-1-3.9-3.9-3.9h-2.6l-0.5,0.3v35.8c0,2.5,1.7,3.8,4,3.8h16.9
				c2.5,0,4.1-1,4.5-3c0.1-0.7,0.2-1.8,0.2-2.4H973z"/>
			<g>
				<path class="st1" d="M799.7,46.8c-2.1,0-4.1,0.1-6.4,0.1l-0.2,0.2v19.8c0.6,0.1,1.4,0.1,2,0.1c0.6,0,1.3,0,2-0.1v-6.6h2.7
					c4,0,6.9-2.3,6.9-6.7C806.6,49,803.7,46.8,799.7,46.8z M799.5,57.3c-0.4,0-1.5,0-2.5,0.1v-7.5c0.9,0,1.7,0,2.5,0
					c2.6,0,3.1,2.1,3.1,3.7C802.6,55.1,802.1,57.3,799.5,57.3z"/>
				<path class="st1" d="M817.3,47c-0.6-0.1-1.6-0.2-2.3-0.2c-0.7,0-1.6,0.1-2.3,0.1l-6.5,19.7l0.1,0.2c0.5,0.2,1.3,0.3,1.9,0.3
					c0.6,0,1.2,0,1.7-0.1l1.4-4.6c0.5,0,1.1,0,1.4,0h4.1c0.3,0,1,0,1.4,0l0.8,2.7c0.5,1.7,1.1,2.1,2.3,2.1c0.8,0,1.7-0.2,2.3-0.5
					L817.3,47z M816.1,59.3h-2.5c-0.3,0-0.9,0-1.3,0l1.1-3.7c0.4-1.3,1-3.4,1.3-4.9h0.2c0.4,1.8,1.1,4,1.6,5.7l0.9,3
					C816.9,59.3,816.4,59.3,816.1,59.3z"/>
				<path class="st1" d="M836.7,47h-14c-0.1,0.6-0.1,1.2-0.1,1.6c0,0.5,0,1.1,0.1,1.6h3.3c0.4,0,1.3,0,1.8,0h0c0,0.8,0,1.4,0,2.2
					v14.6c0.7,0.1,1.4,0.1,2,0.1c0.6,0,1.3,0,2-0.1V52.4c0-0.8,0-1.3,0-2.2h0c0.4,0,1.3,0,1.8,0h1.4c1.4,0,2.1-0.5,2.1-1.8
					C836.9,48,836.9,47.4,836.7,47z"/>
				<path class="st1" d="M852.8,63.9l-1.1-3c-0.4-1.2-1.1-2.2-2.2-2.6c1.9-0.7,3.7-2.6,3.7-5.4c0-4.2-2.8-6.2-6.9-6.2
					c-2.1,0-4.3,0.1-6.7,0.1l-0.2,0.2v19.8c0.6,0.1,1.4,0.1,1.9,0.1c0.6,0,1.3,0,2-0.1v-7.7h1.8c1.7,0,2.3,0.9,2.7,2.1l1.2,3.5
					c0.6,1.5,1.1,2.3,2.5,2.3c1,0,2.1-0.5,2.6-1.2C853.5,65.5,853.1,64.7,852.8,63.9z M846,56.1c-0.6,0-1.7,0-2.7,0.1v-6.4
					c0.9,0,2,0,2.7,0c2.5,0,3.1,1.5,3.1,3.2C849.2,54.6,848.6,56.1,846,56.1z"/>
				<path class="st1" d="M859.3,46.8c-0.5,0-1.4,0-2,0.1v20c0.6,0.1,1.4,0.1,2,0.1c0.6,0,1.3,0,2-0.1V47
					C860.6,46.8,859.9,46.8,859.3,46.8z"/>
				<path class="st1" d="M875.2,47c-0.6-0.1-1.6-0.2-2.3-0.2c-0.7,0-1.6,0.1-2.3,0.1l-6.5,19.7l0.1,0.2c0.5,0.2,1.3,0.3,1.9,0.3
					c0.6,0,1.2,0,1.7-0.1l1.4-4.6c0.5,0,1.1,0,1.4,0h4.1c0.3,0,1,0,1.4,0l0.8,2.7c0.5,1.7,1.1,2.1,2.3,2.1c0.8,0,1.7-0.2,2.3-0.5
					L875.2,47z M874.1,59.3h-2.5c-0.3,0-0.9,0-1.3,0l1.1-3.7c0.4-1.3,1-3.4,1.3-4.9h0.2c0.4,1.8,1.1,4,1.6,5.7l0.9,3
					C874.9,59.3,874.3,59.3,874.1,59.3z"/>
				<path class="st1" d="M900,47c-0.6-0.1-1.6-0.2-2.3-0.2c-0.7,0-1.6,0.1-2.3,0.1l-6.5,19.7l0.2,0.2c0.5,0.2,1.3,0.3,1.9,0.3
					c0.6,0,1.2,0,1.7-0.1l1.4-4.6c0.5,0,1.1,0,1.4,0h4.1c0.3,0,1,0,1.4,0l0.8,2.7c0.5,1.7,1.1,2.1,2.3,2.1c0.8,0,1.7-0.2,2.2-0.5
					L900,47z M898.8,59.3h-2.5c-0.3,0-0.9,0-1.3,0l1.1-3.7c0.4-1.3,1-3.4,1.3-4.9h0.2c0.4,1.8,1.1,4,1.6,5.7l0.9,3
					C899.6,59.3,899,59.3,898.8,59.3z"/>
				<path class="st1" d="M927.4,47c-0.9-0.1-2-0.2-2.7-0.2c-0.7,0-1.6,0.1-2.5,0.2l-2.2,8.1c-0.2,0.8-0.9,3.8-1.1,5h-0.2
					c-0.2-1.2-0.9-4.2-1.1-5l-2.3-8.1c-0.8-0.1-1.8-0.2-2.5-0.2c-0.7,0-1.8,0.1-2.6,0.2l-1.5,19.9c0.6,0.1,1.3,0.2,2,0.2
					c0.6,0,1.2,0,1.8-0.1l0.6-9.4c0.1-1.8,0.2-4.5,0.2-6.3h0.2l3.4,12.7c0.6,0.1,1.5,0.2,2,0.2c0.6,0,1.4-0.1,2-0.2l3.4-12.7h0.2
					c0,1.8,0.1,4.5,0.2,6.3l0.6,9.4c0.6,0.1,1.1,0.1,1.7,0.1c0.6,0,1.4-0.1,2-0.2L927.4,47z"/>
				<path class="st1" d="M942.3,47c-0.6-0.1-1.6-0.2-2.3-0.2c-0.7,0-1.6,0.1-2.3,0.1l-6.5,19.7l0.1,0.2c0.5,0.2,1.3,0.3,1.9,0.3
					s1.2,0,1.7-0.1l1.4-4.6c0.5,0,1.1,0,1.4,0h4.1c0.3,0,1,0,1.4,0l0.8,2.7c0.5,1.7,1.1,2.1,2.3,2.1c0.8,0,1.7-0.2,2.3-0.5L942.3,47
					z M941.1,59.3h-2.5c-0.3,0-0.9,0-1.3,0l1.1-3.7c0.4-1.3,1-3.4,1.3-4.9h0.2c0.4,1.8,1.1,4,1.6,5.7l0.9,3
					C941.9,59.3,941.4,59.3,941.1,59.3z"/>
				<path class="st1" d="M963.8,48.3c-1.3-1.1-3.7-1.5-5.2-1.5c-2.5,0-4.4,0-6.9,0.1l-0.2,0.2v19.7l0.2,0.2c2.5,0.1,4.4,0.1,6.9,0.1
					c1.6,0,4-0.4,5.2-1.5c2.7-2.2,3.2-5.3,3.2-8.7C967,53.5,966.5,50.4,963.8,48.3z M958.6,64c-1.1,0-2,0-3.2,0V49.9
					c1.2,0,2.1,0,3.2,0c3.8,0,4.4,3.8,4.4,7C963,60.2,962.4,64,958.6,64z"/>
				<path class="st1" d="M979.4,47c-0.6-0.1-1.6-0.2-2.2-0.2c-0.7,0-1.6,0.1-2.3,0.1l-6.5,19.7l0.1,0.2c0.5,0.2,1.3,0.3,1.9,0.3
					c0.6,0,1.2,0,1.7-0.1l1.4-4.6c0.5,0,1.1,0,1.4,0h4.1c0.3,0,1,0,1.4,0l0.8,2.7c0.5,1.7,1.1,2.1,2.3,2.1c0.8,0,1.7-0.2,2.3-0.5
					L979.4,47z M978.3,59.3h-2.5c-0.3,0-0.9,0-1.3,0l1.1-3.7c0.4-1.3,1-3.4,1.3-4.9h0.2c0.4,1.8,1.1,4,1.6,5.7l0.9,3
					C979.1,59.3,978.5,59.3,978.3,59.3z"/>
				<path class="st1" d="M818.5,40.1l-4.3,3.7c0.1,0.5,0.6,1.1,1.1,1.3l4.8-2.9C819.9,41.3,819.1,40.4,818.5,40.1z"/>
			</g>
			<g>
				<path class="st1" d="M800.2,125.4l-2.2,0c-0.1,0.3-0.2,0.6-0.2,0.9c0,0.3,0.1,0.6,0.2,0.7c0.2,0.2,0.4,0.2,0.8,0.2h0.7
					c0,0.1,0,0.2,0,0.4c0,0.2,0,0.3,0,0.6v1c-0.2,0-0.4,0.1-0.6,0.1c-0.2,0-0.4,0-0.6,0c-1.6,0-2.4-1.1-2.4-3.2
					c0-2.2,0.8-3.2,2.3-3.2c0.8,0,1.6,0.3,2.4,0.8c0.1-0.1,0.2-0.2,0.4-0.3c0.1-0.1,0.2-0.2,0.3-0.4c0.1-0.2,0.2-0.3,0.2-0.5
					c0.1-0.2,0.1-0.3,0.1-0.5c-1.1-0.7-2.2-1-3.5-1c-0.6,0-1.2,0.1-1.7,0.3c-0.5,0.2-1,0.5-1.5,1c-0.4,0.4-0.8,1-1,1.6
					c-0.2,0.6-0.4,1.4-0.4,2.3c0,0.8,0.1,1.5,0.3,2.1c0.2,0.6,0.4,1.1,0.8,1.6c0.4,0.4,0.8,0.8,1.3,1c0.5,0.2,1.1,0.3,1.8,0.3
					c1.3,0,2.6-0.2,3.9-0.6v-3.7C801.7,125.9,801.2,125.4,800.2,125.4z"/>
				<path class="st1" d="M816,123.9c-0.2-0.6-0.5-1.2-0.8-1.6c-0.4-0.4-0.8-0.8-1.3-1c-0.5-0.2-1.1-0.3-1.8-0.3
					c-0.7,0-1.2,0.1-1.8,0.3c-0.5,0.2-1,0.5-1.3,1c-0.4,0.4-0.6,1-0.8,1.6c-0.2,0.6-0.3,1.4-0.3,2.2c0,1.9,0.5,3.3,1.5,4.2
					c0.7,0.6,1.6,0.9,2.7,0.9c0.7,0,1.2-0.1,1.8-0.3c0.5-0.2,1-0.5,1.3-1c0.4-0.4,0.6-1,0.8-1.6c0.2-0.6,0.3-1.4,0.3-2.2
					C816.2,125.3,816.1,124.6,816,123.9z M813.8,127.4c-0.1,0.4-0.1,0.7-0.3,1c-0.1,0.3-0.3,0.5-0.6,0.7c-0.2,0.2-0.6,0.3-0.9,0.3
					c-0.8,0-1.3-0.4-1.6-1.1c-0.1-0.4-0.2-0.7-0.2-1.1c0-0.3-0.1-0.7-0.1-1.2c0-0.3,0-0.6,0-1c0-0.4,0.1-0.7,0.2-1.1
					c0.1-0.3,0.3-0.6,0.5-0.9c0.2-0.2,0.6-0.3,1-0.3c0.5,0,0.8,0.1,1.1,0.4c0.2,0.2,0.4,0.5,0.5,0.9c0.1,0.4,0.2,0.7,0.2,1.1
					c0,0.4,0,0.8,0,1.1C813.9,126.7,813.8,127,813.8,127.4z"/>
				<path class="st1" d="M829.9,121.3c-0.3-0.1-0.7-0.2-1.2-0.2c-0.4,0-0.7,0-0.9,0.1l-1.9,7.8c-0.1,0-0.1-0.1-0.2-0.2
					c-0.2-1.1-0.4-2-0.5-2.6l-1.1-4.1c-0.1-0.4-0.2-0.7-0.4-0.9c-0.2-0.2-0.5-0.3-0.9-0.3c-0.3,0-0.8,0.1-1.3,0.3l2.4,8.6
					c0.1,0.4,0.3,0.7,0.6,0.8c0.2,0.1,0.6,0.2,1.2,0.2c0.5,0,1.1,0,1.6-0.1l2.7-9.5L829.9,121.3z"/>
				<path class="st1" d="M839.3,129.1c-0.3,0-0.6,0-1,0v0l0-1V127h3.1c0.1-0.3,0.1-0.6,0.1-0.9c0-0.3,0-0.6-0.1-0.9h-2.2
					c-0.4,0-0.7,0-1,0v-1l0-1h3.9c0.1-0.4,0.2-0.7,0.2-1s0-0.6-0.1-0.9h-6.1l-0.1,0.1v8.3c0,0.4,0.1,0.7,0.3,1
					c0.2,0.2,0.6,0.4,1,0.4h3.8c0.9,0,1.3-0.4,1.5-1.1c0-0.2,0-0.5,0-0.8H839.3z"/>
				<path class="st1" d="M855.8,129.4l-0.4-1.2c-0.2-0.7-0.6-1.1-1.1-1.3c0.2-0.1,0.4-0.2,0.7-0.4c0.2-0.2,0.4-0.4,0.6-0.6
					c0.2-0.2,0.3-0.5,0.4-0.7c0.1-0.3,0.1-0.6,0.1-0.9c0-0.5-0.1-1-0.2-1.3c-0.2-0.4-0.4-0.7-0.7-1c-0.3-0.3-0.7-0.5-1.1-0.6
					c-0.4-0.1-0.9-0.2-1.4-0.2c-0.3,0-0.8,0-1.3,0c-0.6,0-1.3,0-2.1,0l-0.1,0.1v9.6c0.3,0.1,0.7,0.1,1.1,0.1c0.5,0,0.8,0,1.1-0.1
					v-3.6h0.6c0.3,0,0.6,0.1,0.8,0.2c0.2,0.2,0.3,0.4,0.4,0.7l0.5,1.5c0.2,0.5,0.3,0.8,0.5,1c0.2,0.2,0.5,0.3,0.8,0.3
					c0.3,0,0.7-0.1,0.9-0.2c0.3-0.1,0.5-0.3,0.6-0.5C856.2,130.2,856,129.8,855.8,129.4z M853.6,125c-0.1,0.2-0.2,0.3-0.4,0.4
					c-0.2,0.1-0.4,0.2-0.7,0.2c-0.3,0-0.7,0-1.1,0v-2.8c0.1,0,0.3,0,0.5,0h0.6c0.9,0,1.3,0.5,1.3,1.4
					C853.7,124.6,853.7,124.9,853.6,125z"/>
				<path class="st1" d="M870.4,121.2h-0.8c-0.4,0-0.8,0.1-1,0.3c-0.2,0.2-0.3,0.6-0.3,1.1v1.7c0,1.5,0.1,2.9,0.2,4.2l-0.1,0
					c-0.2-0.5-0.5-1.2-0.9-2.2l-2.2-5.1c-0.4-0.1-0.8-0.1-1.4-0.1c-0.5,0-0.9,0-1.3,0.1v9.7c0.3,0.1,0.6,0.1,1.1,0.1
					c0.4,0,0.8,0,1.1-0.1v-2.8c0-1.5-0.1-2.9-0.2-4.3l0,0c0.3,0.8,0.5,1.4,0.8,2l2.2,5.1c0.4,0.1,0.9,0.1,1.4,0.1c0.5,0,1,0,1.3-0.1
					L870.4,121.2L870.4,121.2z"/>
				<path class="st1" d="M885.1,123.9c-0.2-0.6-0.5-1.2-0.8-1.6c-0.4-0.4-0.8-0.8-1.3-1c-0.5-0.2-1.1-0.3-1.8-0.3
					c-0.7,0-1.2,0.1-1.8,0.3c-0.5,0.2-1,0.5-1.3,1c-0.4,0.4-0.6,1-0.8,1.6c-0.2,0.6-0.3,1.4-0.3,2.2c0,1.9,0.5,3.3,1.5,4.2
					c0.7,0.6,1.6,0.9,2.7,0.9c0.7,0,1.2-0.1,1.8-0.3c0.5-0.2,1-0.5,1.3-1c0.4-0.4,0.6-1,0.8-1.6c0.2-0.6,0.3-1.4,0.3-2.2
					C885.4,125.3,885.3,124.6,885.1,123.9z M882.9,127.4c0,0.4-0.1,0.7-0.3,1c-0.1,0.3-0.3,0.5-0.6,0.7c-0.2,0.2-0.6,0.3-0.9,0.3
					c-0.8,0-1.3-0.4-1.5-1.1c-0.1-0.4-0.2-0.7-0.2-1.1c0-0.3-0.1-0.7-0.1-1.2c0-0.3,0-0.6,0-1c0-0.4,0.1-0.7,0.2-1.1
					c0.1-0.3,0.3-0.6,0.5-0.9c0.2-0.2,0.6-0.3,1-0.3c0.5,0,0.8,0.1,1.1,0.4c0.2,0.2,0.4,0.5,0.5,0.9c0.1,0.4,0.2,0.7,0.2,1.1
					c0,0.4,0,0.8,0,1.1C883,126.7,883,127,882.9,127.4z"/>
				<path class="st1" d="M905.8,122.9c0.2-0.2,0.3-0.4,0.3-0.8s0-0.7-0.1-0.9H900l-0.1,0.1v9.6c0.3,0.1,0.7,0.1,1.1,0.1
					c0.4,0,0.8,0,1.1-0.1v-3.9h3.1c0.1-0.3,0.1-0.6,0.1-0.9c0-0.3,0-0.7-0.1-0.9h-3.1v-0.9l0-1.1h2.8
					C905.3,123.2,905.6,123.1,905.8,122.9z"/>
				<path class="st1" d="M915.6,129.1c-0.3,0-0.6,0-1,0v0l0-1V127h3.1c0.1-0.3,0.1-0.6,0.1-0.9c0-0.3,0-0.6-0.1-0.9h-2.2
					c-0.4,0-0.7,0-1,0v-1l0-1h3.9c0.1-0.4,0.2-0.7,0.2-1s0-0.6-0.1-0.9h-6.1l-0.1,0.1v8.3c0,0.4,0.1,0.7,0.3,1
					c0.2,0.2,0.6,0.4,1,0.4h3.8c0.9,0,1.3-0.4,1.5-1.1c0-0.2,0-0.5,0-0.8H915.6z"/>
				<path class="st1" d="M933,124.2c-0.1-0.6-0.4-1.1-0.7-1.6c-0.3-0.4-0.8-0.8-1.3-1.1c-0.5-0.3-1.2-0.4-2-0.4c-0.7,0-1.3,0-1.9,0
					c-0.6,0-1.2,0-1.7,0l-0.1,0.1v9.6l0.1,0.1c0.8,0,1.5,0,2.1,0c0.6,0,1,0,1.3,0c0.6,0,1.1-0.1,1.6-0.2c0.5-0.1,0.9-0.3,1.2-0.5
					c0.6-0.5,1-1.1,1.3-1.8c0.2-0.7,0.3-1.5,0.3-2.5C933.2,125.4,933.2,124.8,933,124.2z M929,129.3h-0.8c-0.2,0-0.4,0-0.6,0v-6.4
					c0.2,0,0.4,0,0.6,0h0.8c1.2,0,1.9,1.1,1.9,3.2C930.9,128.2,930.3,129.3,929,129.3z"/>
				<path class="st1" d="M943,129.1c-0.3,0-0.6,0-1,0v0l0-1V127h3.1c0.1-0.3,0.1-0.6,0.1-0.9c0-0.3,0-0.6-0.1-0.9h-2.2
					c-0.4,0-0.7,0-1,0v-1l0-1h3.9c0.1-0.4,0.2-0.7,0.2-1s0-0.6-0.1-0.9h-6.1l-0.1,0.1v8.3c0,0.4,0.1,0.7,0.3,1
					c0.2,0.2,0.6,0.4,1,0.4h3.8c0.8,0,1.3-0.4,1.4-1.1c0-0.2,0-0.5,0-0.8H943z"/>
				<path class="st1" d="M959.5,129.4l-0.4-1.2c-0.2-0.7-0.6-1.1-1.1-1.3c0.2-0.1,0.4-0.2,0.7-0.4c0.2-0.2,0.4-0.4,0.6-0.6
					c0.2-0.2,0.3-0.5,0.4-0.7c0.1-0.3,0.1-0.6,0.1-0.9c0-0.5-0.1-1-0.2-1.3c-0.2-0.4-0.4-0.7-0.7-1s-0.7-0.5-1.1-0.6
					c-0.4-0.1-0.9-0.2-1.4-0.2c-0.3,0-0.8,0-1.3,0c-0.6,0-1.3,0-2.1,0l-0.1,0.1v9.6c0.3,0.1,0.7,0.1,1.1,0.1c0.5,0,0.8,0,1.1-0.1
					v-3.6h0.6c0.4,0,0.6,0.1,0.8,0.2c0.2,0.2,0.3,0.4,0.4,0.7l0.5,1.5c0.2,0.5,0.3,0.8,0.5,1c0.2,0.2,0.5,0.3,0.8,0.3
					c0.3,0,0.7-0.1,0.9-0.2c0.3-0.1,0.5-0.3,0.6-0.5C959.9,130.2,959.7,129.8,959.5,129.4z M957.3,125c-0.1,0.2-0.2,0.3-0.4,0.4
					c-0.2,0.1-0.4,0.2-0.7,0.2c-0.3,0-0.7,0-1.1,0v-2.8c0.1,0,0.3,0,0.5,0h0.6c0.9,0,1.3,0.5,1.3,1.4
					C957.4,124.6,957.4,124.9,957.3,125z"/>
				<path class="st1" d="M971.2,121.3c-0.3-0.1-0.8-0.1-1.3-0.1c-0.5,0-0.9,0-1.3,0.1l-3.1,9.5l0.1,0.1c0.3,0.1,0.7,0.2,1.1,0.2
					c0.4,0,0.7,0,1-0.1l0.6-2.1c0.1,0,0.3,0,0.6,0h2c0.2,0,0.4,0,0.6,0l0.3,0.9c0.1,0.5,0.3,0.8,0.5,1c0.2,0.2,0.5,0.3,1,0.3
					c0.4,0,0.8-0.1,1.1-0.3L971.2,121.3z M970.5,127.1c-0.1,0-0.2,0-0.2,0h-1l-0.6,0l0.3-1.1c0.4-1.4,0.6-2.3,0.7-2.7h0.1
					c0.3,1.2,0.6,2.1,0.8,2.9l0.2,0.9C970.8,127.1,970.7,127.1,970.5,127.1z"/>
				<path class="st1" d="M983.9,129c-0.5,0-0.9,0-1.3,0.1v-6.5c0-1-0.4-1.4-1.3-1.4h-0.8l-0.1,0.1v8.4c0,0.4,0.1,0.7,0.4,1
					c0.2,0.2,0.6,0.4,1,0.4h3.2c0.4,0,0.8-0.1,1-0.3c0.3-0.2,0.4-0.4,0.5-0.7c0-0.3,0.1-0.6,0.1-1H983.9z"/>
			</g>
		</g>
		<path class="st1" d="M781.5,46.8V84l-70.9-31.3c-0.2-0.1-0.5-0.2-0.7-0.2c-0.4,0-0.8,0.1-1.2,0.4l-46.2,37.3V46.8H781.5z"/>
		<path class="st1" d="M740.7,89.5c-29.4,5.8-52,17.7-65.2,26.2c1.9-9.1,6.7-17.4,13.8-23.5C697,85.6,706.7,82,716.8,82
			C725.4,82,733.6,84.6,740.7,89.5z"/>
		<path class="st1" d="M781.5,86c-6.2-0.2-12.3,0-18.1,0.4c-1.7,0.1-3.3,0.3-5,0.4c-1.9,0.2-3.8,0.4-5.6,0.6
			c-3.3,0.4-6.5,0.9-9.6,1.5h0c-7.4-5.5-16.5-8.8-26.4-8.8c-21.9,0-40,16-43.4,36.9c0,0,0,0,0,0.1c-7.1,4.7-10.9,8-10.9,8V92.6
			l47.4-38.2L781.5,86z"/>
		<path class="st1" d="M781.5,101.1v30h-119V131c0.6-0.5,4.1-3.2,10.2-6.8c13.8-8.1,41.4-20.8,81.5-23.2
			C762.7,100.5,771.8,100.5,781.5,101.1z"/>
		<g>
			<path class="st1" d="M475.4,106.5l1.3-16.7c0.3,0,0.7-0.1,1.3-0.1c0.5,0,0.9,0,1.2,0.1l2.8,8.6c0.1,0.4,0.3,1.1,0.6,2
				c0.2,0.9,0.4,1.4,0.4,1.6h0.1c0.2-1.1,0.6-2.3,1-3.6l2.8-8.6c0.3,0,0.8-0.1,1.2-0.1c0.5,0,0.9,0,1.2,0.1l1.3,16.7
				c-0.3,0.1-0.6,0.1-0.9,0.1c-0.3,0-0.6,0-0.9-0.1l-0.7-10.1c0-0.7-0.1-2.3-0.2-4.6h-0.1l-3.9,12.1c-0.4,0.1-0.7,0.1-1,0.1
				c-0.3,0-0.6,0-0.9-0.1l-3.9-12.1h-0.1c0,0.4,0,1.2-0.1,2.3c0,1.1-0.1,1.9-0.1,2.3l-0.7,10.1c-0.3,0-0.6,0.1-0.9,0.1
				C476,106.6,475.7,106.6,475.4,106.5z"/>
			<path class="st1" d="M494.3,106.5V89.8c0.2,0,0.5-0.1,0.9-0.1c0.4,0,0.7,0,1,0.1v16.7c-0.3,0-0.6,0.1-1,0.1
				C494.8,106.6,494.5,106.5,494.3,106.5z"/>
			<path class="st1" d="M511.6,89.7l0.1,0.1v16.7c-0.3,0-0.7,0.1-1.1,0.1c-0.5,0-0.8,0-1.2-0.1l-5.9-11.1c-0.5-0.9-1-2-1.7-3.4h-0.1
				c0.1,3,0.1,4.8,0.1,5.3v9.2c-0.3,0-0.6,0.1-0.9,0.1s-0.5,0-0.8-0.1V89.8c0.3,0,0.7-0.1,1.1-0.1c0.4,0,0.8,0,1.2,0.1l5.9,11.1
				c0.4,0.7,1,1.8,1.7,3.4h0.1c-0.1-2.1-0.2-3.9-0.2-5.6v-7.8c0-0.4,0.1-0.8,0.2-0.9c0.1-0.2,0.4-0.3,0.8-0.3H511.6z"/>
			<path class="st1" d="M515.7,106.5V89.8c0.2,0,0.5-0.1,0.9-0.1c0.4,0,0.7,0,1,0.1v16.7c-0.3,0-0.6,0.1-1,0.1
				C516.2,106.6,515.9,106.5,515.7,106.5z"/>
			<path class="st1" d="M520,105c0-0.6,0.3-1.1,0.9-1.5c1.7,1.1,3.3,1.7,4.9,1.7c1.2,0,2.1-0.2,2.7-0.7c0.7-0.5,1-1.2,1-2
				c0-1.3-0.9-2.3-2.6-3l-2.9-1.2c-2.2-0.9-3.3-2.3-3.3-4.1c0-0.6,0.1-1.2,0.4-1.8c0.3-0.6,0.6-1,1.1-1.4c0.5-0.4,1-0.7,1.7-1
				c0.7-0.2,1.4-0.4,2.2-0.4c1.6,0,3.2,0.4,4.8,1.2c0,0.6-0.3,1.2-0.8,1.6c-0.8-0.4-1.5-0.7-2.2-0.9c-0.7-0.2-1.3-0.3-1.9-0.3
				c-0.5,0-1,0.1-1.4,0.2c-0.4,0.1-0.8,0.3-1.1,0.6c-0.3,0.2-0.5,0.5-0.7,0.8c-0.2,0.3-0.2,0.6-0.2,1c0,0.7,0.2,1.3,0.6,1.7
				c0.4,0.4,1,0.8,1.7,1.1l2.8,1.2c2.4,1.1,3.6,2.5,3.6,4.4c0,1.4-0.5,2.6-1.4,3.4c-1,0.9-2.5,1.3-4.5,1.3
				C523.6,106.8,521.7,106.2,520,105z"/>
			<path class="st1" d="M539.9,91.4l-1.3,0v15.1c-0.3,0-0.6,0.1-0.9,0.1s-0.7,0-0.9-0.1V91.4l-1.3,0h-3.1c0-0.3-0.1-0.5-0.1-0.8
				c0-0.3,0-0.5,0.1-0.8H543c0.1,0.2,0.1,0.5,0.1,0.8c0,0.6-0.4,0.8-1.1,0.8H539.9z"/>
			<path class="st1" d="M546.8,104l0,0.9c0.6,0,1.1,0,1.5,0h6.7c0,0.3,0,0.6,0,0.8c-0.1,0.6-0.5,0.9-1.2,0.9H546
				c-0.3,0-0.6-0.1-0.8-0.3c-0.2-0.2-0.3-0.5-0.3-0.9V89.9l0.1-0.1h9.4c0,0.2,0,0.5,0,0.8c0,0.3,0,0.6-0.1,0.8h-7.7l0,1.5v4.3l1.5,0
				h5.1c0,0.3,0.1,0.6,0.1,0.8c0,0.2,0,0.5-0.1,0.8h-5.1c-0.6,0-1.1,0-1.5,0V104z M547.7,87.6l4.7-2.7c0.5,0.3,0.8,0.8,0.9,1.6
				l-5,2.1C548,88.4,547.8,88.1,547.7,87.6z"/>
			<path class="st1" d="M557.9,89.8l4.9-0.1c1.7,0,3,0.4,3.9,1.3c0.9,0.8,1.4,2,1.4,3.6c0,1.1-0.3,2-0.9,2.8
				c-0.6,0.8-1.4,1.3-2.3,1.6c0.7,0.2,1.2,0.9,1.6,2l1.3,3.3c0.2,0.5,0.4,0.8,0.5,1.1c0.2,0.3,0.4,0.5,0.5,0.6
				c-0.3,0.4-0.7,0.6-1.3,0.6c-0.3,0-0.6-0.1-0.8-0.3c-0.2-0.2-0.4-0.5-0.6-1l-1.4-3.7c-0.3-0.7-0.6-1.3-1-1.7
				c-0.4-0.4-0.9-0.6-1.7-0.6h-2.5v7c-0.3,0-0.6,0.1-1,0.1c-0.4,0-0.7,0-0.9-0.1V89.9L557.9,89.8z M559.7,91.2v6.7
				c0.3,0,0.8,0,1.3,0c0.5,0,1.1,0,1.8,0c0.7,0,1.2-0.1,1.7-0.3c0.4-0.2,0.8-0.4,1.1-0.7c0.3-0.3,0.5-0.6,0.6-1
				c0.1-0.4,0.2-0.8,0.2-1.3c0-0.5-0.1-0.9-0.2-1.3c-0.1-0.4-0.3-0.8-0.6-1c-0.3-0.3-0.6-0.5-1.1-0.7c-0.5-0.2-1-0.3-1.7-0.3
				c-0.7,0-1.3,0-1.8,0C560.4,91.3,560,91.3,559.7,91.2z"/>
			<path class="st1" d="M571.4,106.5V89.8c0.2,0,0.5-0.1,0.9-0.1s0.7,0,1,0.1v16.7c-0.3,0-0.6,0.1-1,0.1S571.6,106.5,571.4,106.5z"
				/>
			<path class="st1" d="M578.8,105.4c-1.7-1.5-2.6-3.9-2.6-7.2c0-1.3,0.1-2.5,0.4-3.5c0.3-1.1,0.7-2,1.3-2.7
				c0.6-0.8,1.2-1.3,2.1-1.8c0.8-0.4,1.8-0.6,2.8-0.6c1.1,0,2.1,0.2,2.9,0.7c0.8,0.5,1.5,1.1,2.1,1.9s0.9,1.7,1.2,2.8
				c0.3,1,0.4,2.1,0.4,3.3c0,1.3-0.1,2.5-0.4,3.5c-0.3,1.1-0.7,2-1.3,2.7c-0.6,0.8-1.2,1.3-2.1,1.8s-1.8,0.6-2.8,0.6
				C581.2,106.8,579.9,106.3,578.8,105.4z M578.4,95.7c-0.1,0.4-0.1,0.8-0.2,1.2c0,0.4,0,0.8,0,1.3c0,0.7,0.1,1.5,0.2,2.3
				c0.1,0.8,0.3,1.6,0.7,2.3c0.3,0.7,0.8,1.3,1.4,1.8c0.6,0.5,1.4,0.7,2.4,0.7c0.7,0,1.2-0.1,1.7-0.3s0.9-0.5,1.2-0.9
				c0.3-0.4,0.6-0.8,0.8-1.3c0.2-0.5,0.4-1,0.5-1.5c0.1-0.5,0.2-1.1,0.3-1.6c0-0.5,0.1-1,0.1-1.5c0-0.7-0.1-1.5-0.2-2.3
				s-0.3-1.6-0.7-2.3c-0.3-0.7-0.8-1.3-1.4-1.8c-0.6-0.5-1.4-0.7-2.4-0.7c-0.7,0-1.4,0.1-1.9,0.4c-0.5,0.3-0.9,0.6-1.3,1.1
				c-0.3,0.4-0.6,0.9-0.8,1.5C578.7,94.5,578.5,95.1,578.4,95.7z"/>
			<path class="st1" d="M605.9,105.3c-0.2,0.2-0.5,0.4-0.8,0.5s-0.7,0.3-1,0.4c-0.4,0.1-0.7,0.2-1.1,0.2c-0.4,0.1-0.7,0.1-1,0.1
				c-0.3,0-0.9,0-1.7,0c-0.8,0-2,0-3.4-0.1l-0.1-0.1V89.9l0.1-0.1c1.4,0,3.1-0.1,5-0.1c1.3,0,2.3,0.2,3.2,0.7c0.8,0.4,1.5,1,2,1.8
				c0.5,0.8,0.9,1.7,1.1,2.7c0.2,1,0.3,2.1,0.3,3.3c0,0.8,0,1.6-0.1,2.3c-0.1,0.7-0.2,1.3-0.4,1.9c-0.2,0.6-0.5,1.1-0.8,1.6
				C606.8,104.5,606.4,104.9,605.9,105.3z M598.6,105l3.2,0c0.9,0,1.7-0.2,2.3-0.6c0.6-0.4,1.1-0.9,1.4-1.5c0.4-0.6,0.6-1.3,0.7-2
				c0.1-0.8,0.2-1.5,0.2-2.3c0-1.1-0.1-2.1-0.2-3c-0.1-0.9-0.4-1.7-0.7-2.4s-0.9-1.2-1.5-1.5c-0.6-0.4-1.4-0.6-2.3-0.6l-3.2,0V105z"
				/>
			<path class="st1" d="M619.5,102.1l-1.7,0h-3.3l-1.7,0l-1.4,4.4c-0.2,0-0.5,0.1-0.8,0.1c-0.3,0-0.6,0-1-0.1l0-0.1l5.6-16.6
				c0.3,0,0.6-0.1,1.1-0.1c0.5,0,0.8,0,1,0.1l5.6,16.6c-0.3,0.2-0.6,0.2-1,0.2c-0.4,0-0.7-0.1-0.8-0.2c-0.2-0.1-0.3-0.4-0.4-0.8
				L619.5,102.1z M613.3,100.6l1.4,0h2.8c0,0,0.2,0,0.6,0c0.4,0,0.7,0,0.8,0l-1.5-4.6c-0.6-1.9-1-3.3-1.2-4.1H616
				c-0.3,1.2-0.6,2.2-0.8,2.9L613.3,100.6z"/>
			<path class="st1" d="M517.4,120.4v-0.2c0-0.5-0.1-1-0.2-1.5c-0.1-0.4-0.3-0.8-0.5-1.2c-0.2-0.3-0.6-0.6-0.9-0.8
				c-0.4-0.2-0.8-0.3-1.4-0.3c-1.2,0-2.1,0.5-2.6,1.6c-0.5,1.1-0.8,2.7-0.8,4.9c0,1.7,0.3,3.1,1,4c0.7,1,1.6,1.4,2.7,1.4
				c0.6,0,1.3-0.1,2-0.4s1.5-0.7,2.3-1.4c0.3,0.2,0.7,0.5,1,1c0.3,0.4,0.5,0.8,0.6,1.2c-0.4,0.4-0.8,0.7-1.3,1
				c-0.5,0.3-1,0.6-1.6,0.8c-0.6,0.2-1.1,0.4-1.7,0.5c-0.6,0.1-1.2,0.2-1.8,0.2c-1.2,0-2.2-0.2-3.1-0.7c-0.8-0.5-1.5-1.1-2-1.9
				c-0.5-0.8-0.9-1.7-1.1-2.8c-0.2-1-0.4-2.1-0.4-3.3c0-1.5,0.2-2.7,0.5-3.9c0.4-1.1,0.8-2,1.5-2.7c0.6-0.7,1.3-1.3,2.1-1.6
				c0.8-0.4,1.7-0.5,2.6-0.5c1,0,1.8,0.1,2.6,0.4c0.8,0.3,1.4,0.6,2,1.1c0.5,0.4,1,1,1.2,1.6c0.3,0.6,0.4,1.2,0.4,1.9
				c0,1.2-0.6,1.8-1.9,1.8c-0.2,0-0.4,0-0.6,0C517.9,120.5,517.7,120.4,517.4,120.4z"/>
			<path class="st1" d="M522.5,130.8v-16.7c0.4-0.1,0.9-0.1,1.6-0.1s1.2,0,1.7,0.1v16.7c-0.5,0.1-1,0.1-1.7,0.1
				S522.9,130.9,522.5,130.8z"/>
			<path class="st1" d="M539.2,129.7c-0.5,0.4-1.2,0.7-2,0.9c-0.8,0.2-1.7,0.3-2.6,0.3c-0.4,0-1.1,0-2,0c-0.9,0-2.1,0-3.5-0.1
				l-0.2-0.1v-16.5l0.2-0.1c0.9,0,1.9-0.1,2.8-0.1c1,0,1.9,0,2.9,0c1.4,0,2.5,0.2,3.4,0.7c0.9,0.4,1.6,1,2.2,1.8
				c0.5,0.8,0.9,1.7,1.1,2.7c0.2,1,0.3,2.1,0.3,3.3c0,1.6-0.2,3-0.5,4.2C541,127.9,540.3,128.9,539.2,129.7z M537.9,118.6
				c-0.5-1.3-1.5-2-3-2c-0.6,0-1.1,0-1.5,0c-0.4,0-0.8,0-1.1,0v11.8c0.3,0,0.7,0,1.1,0c0.4,0,0.8,0,1.2,0c0.4,0,0.8,0,1.1-0.1
				c0.4,0,0.6-0.1,0.9-0.2c0.4-0.2,0.8-0.5,1-0.9c0.3-0.4,0.5-0.8,0.6-1.3c0.1-0.5,0.2-1,0.3-1.6c0.1-0.6,0.1-1.2,0.1-1.8
				c0-0.7,0-1.4-0.1-2C538.3,119.8,538.1,119.2,537.9,118.6z"/>
			<path class="st1" d="M552.4,127l-1.2,0h-3.4l-1.2,0l-1.1,3.8c-0.3,0.1-0.8,0.1-1.5,0.1c-0.6,0-1.1-0.1-1.5-0.2l-0.1-0.2l5.5-16.5
				c0.6-0.1,1.3-0.1,2-0.1c0.7,0,1.3,0,1.8,0.1l5.4,16.5c-0.5,0.3-1,0.4-1.7,0.4s-1.1-0.1-1.4-0.4c-0.3-0.2-0.5-0.7-0.7-1.4
				L552.4,127z M547.4,124.4l1.1,0h2.1l1,0l-0.7-2.5c-0.6-1.9-1-3.4-1.3-4.7h-0.1c-0.1,0.7-0.5,2.1-1.1,4.1L547.4,124.4z"/>
			<path class="st1" d="M568.7,129.7c-0.5,0.4-1.2,0.7-2,0.9c-0.8,0.2-1.7,0.3-2.6,0.3c-0.4,0-1.1,0-2,0c-0.9,0-2.1,0-3.5-0.1
				l-0.2-0.1v-16.5l0.2-0.1c0.9,0,1.9-0.1,2.8-0.1c1,0,1.9,0,2.9,0c1.4,0,2.5,0.2,3.4,0.7c0.9,0.4,1.6,1,2.2,1.8
				c0.5,0.8,0.9,1.7,1.1,2.7c0.2,1,0.3,2.1,0.3,3.3c0,1.6-0.2,3-0.5,4.2C570.5,127.9,569.7,128.9,568.7,129.7z M567.4,118.6
				c-0.5-1.3-1.5-2-3-2c-0.6,0-1.1,0-1.5,0c-0.4,0-0.8,0-1.1,0v11.8c0.3,0,0.7,0,1.1,0c0.4,0,0.8,0,1.2,0c0.4,0,0.8,0,1.1-0.1
				c0.4,0,0.6-0.1,0.9-0.2c0.4-0.2,0.8-0.5,1-0.9c0.3-0.4,0.5-0.8,0.6-1.3c0.1-0.5,0.2-1,0.3-1.6c0.1-0.6,0.1-1.2,0.1-1.8
				c0-0.7,0-1.4-0.1-2C567.8,119.8,567.6,119.2,567.4,118.6z"/>
			<path class="st1" d="M581.9,127l-1.2,0h-3.4l-1.2,0l-1.1,3.8c-0.3,0.1-0.8,0.1-1.5,0.1c-0.6,0-1.1-0.1-1.5-0.2l-0.1-0.2l5.5-16.5
				c0.6-0.1,1.3-0.1,2-0.1s1.3,0,1.8,0.1l5.4,16.5c-0.5,0.3-1,0.4-1.7,0.4c-0.7,0-1.1-0.1-1.4-0.4c-0.3-0.2-0.5-0.7-0.7-1.4
				L581.9,127z M576.9,124.4l1.1,0h2.1l1,0l-0.7-2.5c-0.6-1.9-1-3.4-1.3-4.7h-0.1c-0.1,0.7-0.5,2.1-1.1,4.1L576.9,124.4z"/>
			<path class="st1" d="M600.4,114l0.2,0.2v16.6c-0.5,0.1-1.1,0.2-1.9,0.2s-1.4,0-2-0.1l-4.5-9.5c-0.7-1.4-1.1-2.6-1.5-3.4l-0.1,0
				c0.2,2.3,0.3,4.5,0.3,6.6v6.2c-0.5,0.1-1,0.1-1.6,0.1c-0.6,0-1.1,0-1.5-0.1v-16.7c0.5-0.1,1.1-0.2,1.9-0.2c0.8,0,1.4,0,2,0.1
				l4.4,9.5l1.6,3.6l0.1,0c-0.2-2.4-0.2-4.6-0.2-6.7V116c0-0.7,0.1-1.3,0.4-1.6c0.3-0.3,0.7-0.5,1.4-0.5H600.4z"/>
			<path class="st1" d="M603.8,130.8v-16.7c0.4-0.1,0.9-0.1,1.6-0.1s1.2,0,1.7,0.1v16.7c-0.5,0.1-1,0.1-1.7,0.1
				S604.2,130.9,603.8,130.8z"/>
			<path class="st1" d="M618.6,127l-1.2,0H614l-1.2,0l-1.1,3.8c-0.3,0.1-0.8,0.1-1.5,0.1c-0.6,0-1.1-0.1-1.5-0.2l-0.1-0.2l5.5-16.5
				c0.6-0.1,1.3-0.1,2-0.1s1.3,0,1.8,0.1l5.4,16.5c-0.5,0.3-1,0.4-1.7,0.4s-1.1-0.1-1.4-0.4c-0.3-0.2-0.5-0.7-0.7-1.4L618.6,127z
				 M613.6,124.4l1.1,0h2.1l1,0l-0.7-2.5c-0.6-1.9-1-3.4-1.3-4.7h-0.1c-0.1,0.7-0.5,2.1-1.1,4.1L613.6,124.4z"/>
		</g>
	</g>
</g>
</svg>
