<?xml version="1.0" encoding="utf-8"?>
<!-- Generator: Adobe Illustrator 22.1.0, SVG Export Plug-In . SVG Version: 6.00 Build 0)  -->
<svg version="1.1" xmlns="http://www.w3.org/2000/svg" xmlns:xlink="http://www.w3.org/1999/xlink" x="0px" y="0px"
	 viewBox="0 0 526.7 171.3" style="enable-background:new 0 0 526.7 171.3;" xml:space="preserve">
<style type="text/css">
	.st0{fill:#FFFFFF;}
</style>
<g id="Layer_2">
</g>
<g id="Layer_1">
	<path class="st0" d="M346.1,96.5c3.6-1.3,6-4.4,6-8c0-6.5-4.5-10.3-13.9-10.3c-4.2,0-8.6,0.1-13.2,0.2l-0.4,0.4V117l0.4,0.4
		c4.8,0.1,8.9,0.2,14,0.2c10.6,0,15.1-4.8,15.1-11.1C354.1,101.6,350.4,97.6,346.1,96.5z M331.3,82.7c2,0.1,5,0.1,6.8,0.1
		c6,0,7.2,3.1,7.2,5.9c0,2.7-1.3,5.9-7.3,5.9h-6.7V82.7z M339,113c-2.4,0-5,0.1-7.7,0.1V99.2h7.3c6.8,0,8.6,4.1,8.6,6.9
		C347.2,109,345.8,113,339,113z"/>
	<path class="st0" d="M386.9,111.8l-2.8-6.7c-0.9-2.2-2.4-4.2-4.5-4.9c4.6-1.3,8.1-5.1,8.1-10.4c0-7.6-5.6-11.7-14.4-11.7
		c-4.3,0-8.9,0.1-13.7,0.2l-0.4,0.4v38.7c1,0.2,2.3,0.2,3.3,0.2c1.1,0,2.4-0.1,3.4-0.2v-15.7h5.2c3.9,0,5.3,2.1,6.4,4.7l3.2,7.7
		c1,2.5,1.9,3.7,4.4,3.7c1.7,0,3.7-0.7,4.6-1.9C388.3,114.9,387.5,113.3,386.9,111.8z M372.9,96.7c-1.8,0-4.6,0.1-7.1,0.1V82.9
		c2.2,0.1,5.2,0.1,7.1,0.1c6.2,0,7.8,3.4,7.8,6.9C380.7,93.2,379.2,96.7,372.9,96.7z"/>
	<path class="st0" d="M415.3,78.4c-1-0.2-2.7-0.2-3.8-0.2c-1.1,0-2.9,0.1-3.9,0.2L393.2,117l0.2,0.3c0.9,0.2,2.1,0.4,3.3,0.4
		c1,0,2.1-0.1,2.9-0.2l3.4-9.5c1.1,0,3.2,0.1,3.7,0.1h8.7c0.5,0,2.7-0.1,3.8-0.1l2.4,6.7c0.8,2.5,1.9,3.2,4,3.2c1.5,0,3-0.2,3.9-0.8
		L415.3,78.4z M414.3,102.9H408c-0.5,0-2.2,0.1-3.2,0.1l3.7-10.3c0.7-2.1,1.8-5.7,2.5-8.3h0.3c0.9,3,2.2,7,3.4,10.3l2.9,8.3
		C416.5,103,414.8,102.9,414.3,102.9z"/>
	<path class="st0" d="M454,96l-7.4-2.9c-3.1-1.2-5.3-2.6-5.3-5.1c0-3,2.9-5.4,7.6-5.4c3.2,0,7.6,1.2,10.9,2.7c1.4-1.1,2.4-3,2.5-4.7
		c-3.3-1.5-8.2-3-13.5-3c-8.5,0-14.4,4.9-14.4,11.1c0,4.9,3.4,7.8,8.7,9.9l7.5,2.9c3.7,1.4,5.8,3.5,5.8,6.2c-0.1,3.1-3,5.4-8.1,5.4
		c-4.4,0-9.1-1.7-12.8-3.9c-1.4,1-2.7,2.9-2.9,4.7c4.3,2.7,10,4.3,15.3,4.3c10.5,0,15.6-4.9,15.6-11.5
		C463.5,101.6,459.4,98.1,454,96z"/>
	<g>
		<path class="st0" d="M474.8,78.1c-1,0-2.4,0.1-3.4,0.2v39c1,0.2,2.4,0.2,3.4,0.2c1,0,2.4-0.1,3.4-0.2v-39
			C477.1,78.2,475.8,78.1,474.8,78.1z"/>
		<path class="st0" d="M501.6,112.1c-1.7,0-3.7,0.1-5.7,0.2V82c0-2.7-1-3.9-3.8-3.9h-2.5l-0.4,0.3v35.2c0,2.5,1.7,3.8,3.9,3.8h16.6
			c2.4,0,4-1,4.4-2.9c0.1-0.7,0.2-1.8,0.2-2.4H501.6z"/>
		<g>
			<path class="st0" d="M331.1,52c-2.1,0-4,0.1-6.3,0.1l-0.2,0.2v19.5c0.6,0.1,1.4,0.1,1.9,0.1c0.5,0,1.3,0,1.9-0.1v-6.5h2.7
				c4,0,6.8-2.3,6.8-6.6C337.9,54.1,335.1,52,331.1,52z M330.9,62.3c-0.4,0-1.5,0-2.4,0.1V55c0.9,0,1.7,0,2.4,0
				c2.6,0,3.1,2.1,3.1,3.6C333.9,60.2,333.4,62.3,330.9,62.3z"/>
			<path class="st0" d="M348.4,52.1c-0.6-0.1-1.6-0.2-2.2-0.2c-0.7,0-1.6,0.1-2.2,0.1l-6.4,19.4l0.1,0.2c0.5,0.2,1.2,0.3,1.8,0.3
				c0.6,0,1.2,0,1.7-0.1l1.4-4.5c0.5,0,1.1,0,1.4,0h4c0.3,0,1,0,1.4,0l0.8,2.6c0.5,1.6,1.1,2.1,2.3,2.1c0.7,0,1.7-0.2,2.2-0.5
				L348.4,52.1z M347.2,64.2h-2.5c-0.3,0-0.9,0-1.3,0l1.1-3.7c0.4-1.3,1-3.4,1.3-4.9h0.2c0.4,1.7,1.1,3.9,1.6,5.6l0.9,2.9
				C348,64.3,347.5,64.2,347.2,64.2z"/>
			<path class="st0" d="M367.5,52.1h-13.8c-0.1,0.6-0.1,1.2-0.1,1.6c0,0.5,0,1,0.1,1.6h3.2c0.4,0,1.3,0,1.7,0h0c0,0.8,0,1.4,0,2.1
				v14.3c0.7,0.1,1.4,0.1,1.9,0.1c0.6,0,1.3,0,2-0.1V57.4c0-0.8,0-1.3,0-2.1h0c0.4,0,1.3,0,1.7,0h1.4c1.4,0,2.1-0.5,2.1-1.7
				C367.7,53.1,367.6,52.5,367.5,52.1z"/>
			<path class="st0" d="M383.3,68.8l-1.1-2.9c-0.4-1.2-1.1-2.2-2.1-2.5c1.9-0.7,3.6-2.5,3.6-5.3c0-4.1-2.8-6.1-6.8-6.1
				c-2.1,0-4.3,0.1-6.6,0.1l-0.2,0.2v19.5c0.6,0.1,1.4,0.1,1.9,0.1c0.5,0,1.3,0,1.9-0.1v-7.5h1.8c1.7,0,2.2,0.9,2.7,2.1l1.2,3.4
				c0.5,1.5,1,2.3,2.5,2.3c1,0,2.1-0.5,2.6-1.2C384.1,70.3,383.6,69.6,383.3,68.8z M376.7,61.2c-0.5,0-1.6,0-2.7,0.1v-6.3
				c0.9,0,2,0,2.7,0c2.5,0,3.1,1.5,3.1,3.1C379.8,59.6,379.2,61.2,376.7,61.2z"/>
			<path class="st0" d="M389.7,52c-0.5,0-1.4,0-1.9,0.1v19.7c0.6,0.1,1.4,0.1,1.9,0.1c0.5,0,1.3,0,1.9-0.1V52.1
				C391,52,390.3,52,389.7,52z"/>
			<path class="st0" d="M405.4,52.1c-0.6-0.1-1.6-0.2-2.2-0.2c-0.7,0-1.6,0.1-2.2,0.1l-6.4,19.4l0.1,0.2c0.5,0.2,1.2,0.3,1.8,0.3
				c0.6,0,1.2,0,1.7-0.1l1.4-4.5c0.5,0,1.1,0,1.4,0h4c0.3,0,1,0,1.4,0l0.8,2.6c0.5,1.6,1.1,2.1,2.3,2.1c0.7,0,1.7-0.2,2.2-0.5
				L405.4,52.1z M404.3,64.2h-2.5c-0.3,0-0.9,0-1.3,0l1.1-3.7c0.4-1.3,1-3.4,1.3-4.9h0.2c0.4,1.7,1.1,3.9,1.6,5.6l0.9,2.9
				C405.1,64.3,404.5,64.2,404.3,64.2z"/>
			<path class="st0" d="M429.7,52.1c-0.6-0.1-1.6-0.2-2.2-0.2c-0.7,0-1.6,0.1-2.2,0.1l-6.4,19.4l0.1,0.2c0.5,0.2,1.2,0.3,1.8,0.3
				c0.6,0,1.2,0,1.7-0.1l1.4-4.5c0.5,0,1.1,0,1.4,0h4c0.3,0,1,0,1.4,0l0.8,2.6c0.5,1.6,1.1,2.1,2.3,2.1c0.7,0,1.7-0.2,2.2-0.5
				L429.7,52.1z M428.6,64.2h-2.5c-0.3,0-0.9,0-1.3,0l1.1-3.7c0.4-1.3,1-3.4,1.3-4.9h0.2c0.4,1.7,1.1,3.9,1.6,5.6l0.9,2.9
				C429.4,64.3,428.8,64.2,428.6,64.2z"/>
			<path class="st0" d="M456.7,52.1c-0.9-0.1-1.9-0.2-2.6-0.2c-0.7,0-1.6,0.1-2.4,0.2l-2.2,8c-0.2,0.8-0.9,3.8-1.1,4.9h-0.2
				c-0.2-1.2-0.9-4.1-1.1-4.9l-2.2-8c-0.8-0.1-1.8-0.2-2.5-0.2c-0.7,0-1.8,0.1-2.6,0.2l-1.5,19.6c0.5,0.1,1.3,0.2,1.9,0.2
				c0.6,0,1.2,0,1.7-0.1l0.5-9.2c0.1-1.8,0.2-4.4,0.2-6.2h0.2l3.4,12.5c0.6,0.1,1.4,0.1,2,0.1c0.5,0,1.4-0.1,2-0.1l3.4-12.5h0.2
				c0,1.8,0.1,4.5,0.2,6.2l0.5,9.2c0.5,0.1,1.1,0.1,1.7,0.1c0.6,0,1.4-0.1,2-0.2L456.7,52.1z"/>
			<path class="st0" d="M471.4,52.1c-0.6-0.1-1.6-0.2-2.2-0.2c-0.7,0-1.6,0.1-2.2,0.1l-6.4,19.4l0.1,0.2c0.5,0.2,1.2,0.3,1.8,0.3
				c0.6,0,1.2,0,1.7-0.1l1.4-4.5c0.5,0,1.1,0,1.4,0h4c0.3,0,1,0,1.4,0l0.8,2.6c0.5,1.6,1.1,2.1,2.3,2.1c0.7,0,1.7-0.2,2.2-0.5
				L471.4,52.1z M470.2,64.2h-2.5c-0.3,0-0.9,0-1.3,0l1.1-3.7c0.4-1.3,1-3.4,1.3-4.9h0.2c0.4,1.7,1.1,3.9,1.6,5.6l0.9,2.9
				C471,64.3,470.5,64.2,470.2,64.2z"/>
			<path class="st0" d="M492.6,53.4c-1.3-1-3.6-1.4-5.2-1.4c-2.4,0-4.3,0-6.8,0.1l-0.2,0.2v19.4l0.2,0.2c2.5,0.1,4.4,0.1,6.8,0.1
				c1.6,0,3.9-0.4,5.2-1.4c2.7-2.1,3.1-5.2,3.1-8.5C495.7,58.6,495.2,55.5,492.6,53.4z M487.4,68.9c-1.1,0-2,0-3.1,0V55
				c1.2,0,2,0,3.1,0c3.8,0,4.3,3.7,4.3,6.9C491.8,65.1,491.2,68.9,487.4,68.9z"/>
			<path class="st0" d="M507.9,52.1c-0.6-0.1-1.6-0.2-2.2-0.2c-0.7,0-1.6,0.1-2.2,0.1l-6.4,19.4l0.1,0.2c0.5,0.2,1.2,0.3,1.8,0.3
				c0.6,0,1.2,0,1.7-0.1l1.4-4.5c0.5,0,1.1,0,1.4,0h4c0.3,0,1,0,1.4,0l0.8,2.6c0.5,1.6,1.1,2.1,2.3,2.1c0.7,0,1.7-0.2,2.2-0.5
				L507.9,52.1z M506.8,64.2h-2.5c-0.3,0-0.9,0-1.3,0l1.1-3.7c0.4-1.3,1-3.4,1.3-4.9h0.2c0.4,1.7,1.1,3.9,1.6,5.6l0.9,2.9
				C507.6,64.3,507.1,64.2,506.8,64.2z"/>
			<path class="st0" d="M349.6,45.4l-4.3,3.6c0.1,0.5,0.6,1.1,1.1,1.3l4.8-2.8C350.9,46.6,350.2,45.7,349.6,45.4z"/>
		</g>
		<g>
			<path class="st0" d="M331.5,129.3l-2.2,0c-0.1,0.3-0.1,0.6-0.1,0.9c0,0.3,0.1,0.6,0.2,0.7c0.2,0.2,0.4,0.2,0.8,0.2h0.7
				c0,0.1,0,0.2,0,0.4c0,0.2,0,0.3,0,0.6v0.9c-0.2,0-0.4,0.1-0.6,0.1c-0.2,0-0.4,0-0.6,0c-1.6,0-2.3-1.1-2.3-3.2
				c0-2.1,0.8-3.2,2.3-3.2c0.8,0,1.6,0.3,2.3,0.8c0.1-0.1,0.2-0.2,0.4-0.3c0.1-0.1,0.2-0.2,0.3-0.4c0.1-0.1,0.2-0.3,0.2-0.5
				c0.1-0.1,0.1-0.3,0.1-0.5c-1.1-0.7-2.2-1-3.4-1c-0.6,0-1.2,0.1-1.7,0.3c-0.5,0.2-1,0.5-1.4,0.9c-0.4,0.4-0.7,0.9-1,1.6
				c-0.2,0.6-0.4,1.4-0.4,2.2c0,0.8,0.1,1.5,0.3,2.1c0.2,0.6,0.4,1.1,0.8,1.5c0.3,0.4,0.8,0.7,1.3,1c0.5,0.2,1.1,0.3,1.8,0.3
				c1.3,0,2.6-0.2,3.8-0.6v-3.7C333,129.8,332.5,129.3,331.5,129.3z"/>
			<path class="st0" d="M347.1,127.8c-0.2-0.6-0.5-1.1-0.8-1.6c-0.4-0.4-0.8-0.7-1.3-1c-0.5-0.2-1.1-0.3-1.7-0.3
				c-0.6,0-1.2,0.1-1.7,0.3c-0.5,0.2-1,0.5-1.3,1c-0.4,0.4-0.6,0.9-0.8,1.6c-0.2,0.6-0.3,1.3-0.3,2.2c0,1.9,0.5,3.3,1.5,4.1
				c0.7,0.6,1.6,0.9,2.7,0.9c0.6,0,1.2-0.1,1.7-0.3c0.5-0.2,1-0.5,1.3-1c0.4-0.4,0.6-0.9,0.8-1.6c0.2-0.6,0.3-1.3,0.3-2.1
				C347.4,129.2,347.3,128.5,347.1,127.8z M345,131.3c-0.1,0.4-0.1,0.7-0.3,1c-0.1,0.3-0.3,0.5-0.6,0.7c-0.2,0.2-0.5,0.3-0.9,0.3
				c-0.8,0-1.3-0.4-1.5-1.1c-0.1-0.4-0.2-0.7-0.2-1c0-0.3-0.1-0.7-0.1-1.1c0-0.3,0-0.6,0-1c0-0.4,0.1-0.7,0.2-1.1
				c0.1-0.3,0.3-0.6,0.5-0.8c0.2-0.2,0.6-0.3,1-0.3c0.5,0,0.8,0.1,1.1,0.4c0.2,0.2,0.4,0.5,0.5,0.9c0.1,0.3,0.2,0.7,0.2,1.1
				c0,0.4,0,0.8,0,1.1C345,130.5,345,130.9,345,131.3z"/>
			<path class="st0" d="M360.8,125.3c-0.3-0.1-0.7-0.1-1.2-0.1c-0.4,0-0.6,0-0.9,0.1l-1.8,7.7c-0.1,0-0.1-0.1-0.2-0.2
				c-0.2-1.1-0.4-1.9-0.5-2.5l-1.1-4c-0.1-0.4-0.2-0.7-0.4-0.8c-0.2-0.2-0.5-0.3-0.9-0.3c-0.3,0-0.7,0.1-1.2,0.3l2.3,8.4
				c0.1,0.4,0.3,0.7,0.5,0.8c0.2,0.1,0.6,0.2,1.2,0.2c0.5,0,1.1,0,1.6-0.1l2.6-9.4L360.8,125.3z"/>
			<path class="st0" d="M370.1,132.9c-0.3,0-0.6,0-1,0v0l0-1v-1.1h3.1c0.1-0.3,0.1-0.6,0.1-0.9c0-0.3,0-0.6-0.1-0.9H370
				c-0.4,0-0.7,0-0.9,0v-1l0-1h3.8c0.1-0.3,0.2-0.7,0.2-1s0-0.6-0.1-0.9h-6l-0.1,0.1v8.2c0,0.4,0.1,0.7,0.3,1
				c0.2,0.2,0.5,0.3,0.9,0.3h3.7c0.8,0,1.3-0.4,1.4-1.1c0-0.2,0-0.5,0-0.8H370.1z"/>
			<path class="st0" d="M386.3,133.2l-0.4-1.2c-0.2-0.7-0.6-1.1-1.1-1.3c0.2-0.1,0.4-0.2,0.6-0.4c0.2-0.2,0.4-0.4,0.5-0.6
				c0.2-0.2,0.3-0.5,0.4-0.7c0.1-0.3,0.1-0.6,0.1-0.9c0-0.5-0.1-0.9-0.2-1.3c-0.2-0.4-0.4-0.7-0.7-1c-0.3-0.3-0.7-0.4-1.1-0.6
				c-0.4-0.1-0.9-0.2-1.4-0.2c-0.3,0-0.8,0-1.3,0c-0.5,0-1.2,0-2,0l-0.1,0.1v9.5c0.3,0.1,0.7,0.1,1.1,0.1s0.8,0,1.1-0.1v-3.5h0.6
				c0.3,0,0.6,0.1,0.8,0.2c0.2,0.2,0.3,0.4,0.4,0.6l0.5,1.5c0.2,0.5,0.3,0.8,0.5,1c0.2,0.2,0.4,0.3,0.8,0.3s0.6-0.1,0.9-0.2
				c0.3-0.1,0.5-0.3,0.6-0.5C386.7,134,386.5,133.7,386.3,133.2z M384.1,128.9c-0.1,0.2-0.2,0.3-0.4,0.4c-0.2,0.1-0.4,0.2-0.7,0.2
				c-0.3,0-0.7,0-1.1,0v-2.8c0.1,0,0.3,0,0.5,0h0.6c0.9,0,1.3,0.5,1.3,1.4C384.3,128.5,384.2,128.8,384.1,128.9z"/>
			<path class="st0" d="M400.6,125.1h-0.7c-0.4,0-0.8,0.1-1,0.3c-0.2,0.2-0.3,0.6-0.3,1v1.7c0,1.5,0.1,2.8,0.2,4.1l-0.1,0
				c-0.2-0.5-0.5-1.2-0.9-2.1l-2.2-5c-0.4-0.1-0.8-0.1-1.3-0.1c-0.5,0-0.9,0-1.3,0.1v9.5c0.3,0.1,0.6,0.1,1,0.1c0.4,0,0.8,0,1-0.1
				V132c0-1.4-0.1-2.8-0.2-4.2l0,0c0.3,0.7,0.5,1.4,0.8,2l2.2,5c0.4,0.1,0.8,0.1,1.4,0.1c0.5,0,0.9,0,1.3-0.1L400.6,125.1
				L400.6,125.1z"/>
			<path class="st0" d="M415.1,127.8c-0.2-0.6-0.5-1.1-0.8-1.6c-0.4-0.4-0.8-0.7-1.3-1c-0.5-0.2-1.1-0.3-1.7-0.3
				c-0.6,0-1.2,0.1-1.7,0.3c-0.5,0.2-1,0.5-1.3,1c-0.4,0.4-0.6,0.9-0.8,1.6c-0.2,0.6-0.3,1.3-0.3,2.2c0,1.9,0.5,3.3,1.5,4.1
				c0.7,0.6,1.6,0.9,2.7,0.9c0.6,0,1.2-0.1,1.7-0.3c0.5-0.2,1-0.5,1.3-1c0.4-0.4,0.6-0.9,0.8-1.6c0.2-0.6,0.3-1.3,0.3-2.1
				C415.4,129.2,415.3,128.5,415.1,127.8z M413,131.3c0,0.4-0.1,0.7-0.3,1c-0.1,0.3-0.3,0.5-0.6,0.7c-0.2,0.2-0.5,0.3-0.9,0.3
				c-0.8,0-1.3-0.4-1.5-1.1c-0.1-0.4-0.2-0.7-0.2-1c0-0.3-0.1-0.7-0.1-1.1c0-0.3,0-0.6,0-1c0-0.4,0.1-0.7,0.2-1.1
				c0.1-0.3,0.3-0.6,0.5-0.8c0.2-0.2,0.6-0.3,1-0.3c0.5,0,0.8,0.1,1.1,0.4c0.2,0.2,0.4,0.5,0.5,0.9c0.1,0.3,0.2,0.7,0.2,1.1
				c0,0.4,0,0.8,0,1.1C413.1,130.5,413,130.9,413,131.3z"/>
			<path class="st0" d="M435.5,126.9c0.2-0.2,0.3-0.4,0.3-0.8s0-0.6-0.1-0.9h-6l-0.1,0.1v9.5c0.3,0.1,0.7,0.1,1.1,0.1
				c0.4,0,0.8,0,1.1-0.1v-3.8h3c0.1-0.3,0.1-0.6,0.1-0.9s0-0.6-0.1-0.9h-3v-0.9l0-1.1h2.8C435,127.1,435.3,127,435.5,126.9z"/>
			<path class="st0" d="M445.1,132.9c-0.3,0-0.6,0-1,0v0l0-1v-1.1h3.1c0.1-0.3,0.1-0.6,0.1-0.9c0-0.3,0-0.6-0.1-0.9h-2.1
				c-0.4,0-0.7,0-0.9,0v-1l0-1h3.8c0.1-0.3,0.2-0.7,0.2-1s0-0.6-0.1-0.9h-6l-0.1,0.1v8.2c0,0.4,0.1,0.7,0.3,1
				c0.2,0.2,0.5,0.3,0.9,0.3h3.7c0.8,0,1.3-0.4,1.4-1.1c0-0.2,0-0.5,0-0.8H445.1z"/>
			<path class="st0" d="M462.3,128.1c-0.1-0.6-0.4-1.1-0.7-1.5c-0.3-0.4-0.7-0.8-1.3-1c-0.5-0.3-1.2-0.4-2-0.4c-0.6,0-1.3,0-1.8,0
				c-0.6,0-1.1,0-1.7,0l-0.1,0.1v9.4l0.1,0.1c0.8,0,1.5,0,2,0c0.5,0,1,0,1.3,0c0.6,0,1.1-0.1,1.6-0.2c0.5-0.1,0.9-0.3,1.2-0.5
				c0.6-0.5,1-1.1,1.2-1.7c0.2-0.7,0.3-1.5,0.3-2.4C462.5,129.3,462.4,128.7,462.3,128.1z M458.3,133.1h-0.8c-0.2,0-0.4,0-0.6,0
				v-6.3c0.2,0,0.4,0,0.6,0h0.8c1.2,0,1.8,1,1.8,3.1C460.2,132.1,459.6,133.1,458.3,133.1z"/>
			<path class="st0" d="M472.1,132.9c-0.3,0-0.6,0-1,0v0l0-1v-1.1h3.1c0.1-0.3,0.1-0.6,0.1-0.9c0-0.3,0-0.6-0.1-0.9H472
				c-0.4,0-0.7,0-0.9,0v-1l0-1h3.8c0.1-0.3,0.2-0.7,0.2-1s0-0.6-0.1-0.9h-6l-0.1,0.1v8.2c0,0.4,0.1,0.7,0.3,1
				c0.2,0.2,0.5,0.3,0.9,0.3h3.7c0.8,0,1.3-0.4,1.4-1.1c0-0.2,0-0.5,0-0.8H472.1z"/>
			<path class="st0" d="M488.3,133.2l-0.4-1.2c-0.2-0.7-0.6-1.1-1.1-1.3c0.2-0.1,0.4-0.2,0.7-0.4c0.2-0.2,0.4-0.4,0.5-0.6
				c0.2-0.2,0.3-0.5,0.4-0.7c0.1-0.3,0.1-0.6,0.1-0.9c0-0.5-0.1-0.9-0.2-1.3c-0.2-0.4-0.4-0.7-0.7-1c-0.3-0.3-0.7-0.4-1.1-0.6
				c-0.4-0.1-0.9-0.2-1.4-0.2c-0.3,0-0.8,0-1.3,0c-0.6,0-1.2,0-2,0l-0.1,0.1v9.5c0.3,0.1,0.7,0.1,1.1,0.1c0.5,0,0.8,0,1.1-0.1v-3.5
				h0.6c0.3,0,0.6,0.1,0.8,0.2c0.2,0.2,0.3,0.4,0.4,0.6l0.5,1.5c0.2,0.5,0.3,0.8,0.5,1c0.2,0.2,0.5,0.3,0.8,0.3
				c0.3,0,0.6-0.1,0.9-0.2c0.3-0.1,0.5-0.3,0.6-0.5C488.7,134,488.5,133.7,488.3,133.2z M486.1,128.9c-0.1,0.2-0.2,0.3-0.4,0.4
				c-0.2,0.1-0.4,0.2-0.7,0.2c-0.3,0-0.7,0-1.1,0v-2.8c0.1,0,0.3,0,0.5,0h0.6c0.9,0,1.3,0.5,1.3,1.4
				C486.3,128.5,486.2,128.8,486.1,128.9z"/>
			<path class="st0" d="M499.8,125.2c-0.3-0.1-0.8-0.1-1.3-0.1c-0.5,0-0.9,0-1.3,0.1l-3.1,9.4l0.1,0.1c0.3,0.1,0.6,0.2,1.1,0.2
				c0.4,0,0.7,0,0.9-0.1l0.6-2c0.1,0,0.3,0,0.6,0h2c0.2,0,0.4,0,0.5,0l0.3,0.9c0.1,0.5,0.3,0.8,0.5,1c0.2,0.2,0.5,0.3,1,0.3
				c0.4,0,0.8-0.1,1.1-0.3L499.8,125.2z M499.2,131c-0.1,0-0.2,0-0.2,0h-1l-0.6,0l0.3-1.1c0.4-1.4,0.6-2.3,0.7-2.7h0.1
				c0.3,1.1,0.5,2.1,0.8,2.9l0.2,0.9C499.4,131,499.3,131,499.2,131z"/>
			<path class="st0" d="M512.3,132.9c-0.5,0-0.9,0-1.3,0.1v-6.4c0-1-0.4-1.4-1.3-1.4h-0.8l-0.1,0.1v8.3c0,0.4,0.1,0.7,0.3,1
				c0.2,0.2,0.5,0.3,1,0.3h3.2c0.4,0,0.7-0.1,1-0.3c0.3-0.2,0.4-0.4,0.4-0.7c0-0.3,0.1-0.6,0.1-1H512.3z"/>
		</g>
	</g>
	<path class="st0" d="M313.2,52v36.6l-69.8-30.8c-0.2-0.1-0.5-0.2-0.7-0.2c-0.4,0-0.8,0.1-1.2,0.4l-45.4,36.7V52H313.2z"/>
	<path class="st0" d="M273,93.9c-29,5.8-51.1,17.4-64.1,25.7c1.8-8.9,6.6-17.1,13.6-23.1c7.5-6.4,17.1-10,27-10
		C258,86.6,266.1,89.1,273,93.9z"/>
	<path class="st0" d="M313.2,90.5c-6.1-0.2-12.1,0-17.8,0.4c-1.6,0.1-3.3,0.3-4.9,0.4c-1.9,0.2-3.7,0.4-5.6,0.6
		c-3.2,0.4-6.4,0.9-9.4,1.5h0c-7.2-5.4-16.2-8.7-26-8.7c-21.5,0-39.4,15.7-42.7,36.3c0,0,0,0,0,0.1c-7,4.6-10.7,7.9-10.7,7.9V97
		l46.6-37.6L313.2,90.5z"/>
	<path class="st0" d="M313.2,105.3v29.5H196.1v-0.1c0.6-0.5,4-3.2,10-6.7c13.6-8,40.7-20.5,80.2-22.8
		C294.7,104.8,303.7,104.8,313.2,105.3z"/>
	<g>
		<path class="st0" d="M12,110.7l1.3-16.4c0.3,0,0.7-0.1,1.2-0.1c0.5,0,0.9,0,1.2,0.1l2.7,8.4c0.1,0.4,0.3,1,0.6,1.9
			c0.2,0.9,0.4,1.4,0.4,1.6h0.1c0.2-1.1,0.6-2.3,1-3.5l2.8-8.4c0.3,0,0.7-0.1,1.2-0.1c0.5,0,0.9,0,1.2,0.1l1.3,16.4
			c-0.3,0.1-0.6,0.1-0.9,0.1c-0.3,0-0.6,0-0.9-0.1l-0.7-10c0-0.7-0.1-2.2-0.2-4.5h-0.1l-3.8,11.9c-0.4,0.1-0.7,0.1-1,0.1
			c-0.3,0-0.5,0-0.9-0.1l-3.8-11.9h-0.1c0,0.4,0,1.2-0.1,2.3c0,1.1-0.1,1.9-0.1,2.3l-0.7,10c-0.3,0-0.6,0.1-0.9,0.1
			C12.6,110.8,12.3,110.8,12,110.7z"/>
		<path class="st0" d="M30.6,110.7V94.3c0.2,0,0.5-0.1,0.9-0.1s0.7,0,0.9,0.1v16.4c-0.3,0-0.6,0.1-0.9,0.1S30.8,110.7,30.6,110.7z"
			/>
		<path class="st0" d="M47.6,94.2l0.1,0.1v16.4c-0.3,0-0.7,0.1-1.1,0.1s-0.8,0-1.2-0.1l-5.8-10.9c-0.5-0.9-1-2-1.6-3.3h-0.1
			c0.1,3,0.1,4.7,0.1,5.2v9c-0.3,0-0.6,0.1-0.9,0.1c-0.3,0-0.5,0-0.8-0.1V94.3c0.3,0,0.7-0.1,1.1-0.1c0.4,0,0.8,0,1.1,0.1l5.8,10.9
			c0.4,0.7,0.9,1.8,1.7,3.4h0.1c-0.1-2.1-0.2-3.9-0.2-5.5v-7.7c0-0.4,0.1-0.7,0.2-0.9c0.1-0.2,0.4-0.3,0.8-0.3H47.6z"/>
		<path class="st0" d="M51.6,110.7V94.3c0.2,0,0.5-0.1,0.9-0.1c0.4,0,0.7,0,0.9,0.1v16.4c-0.3,0-0.6,0.1-0.9,0.1
			C52.1,110.8,51.8,110.7,51.6,110.7z"/>
		<path class="st0" d="M55.9,109.2c0-0.6,0.3-1.1,0.8-1.5c1.6,1.1,3.2,1.7,4.8,1.7c1.1,0,2-0.2,2.7-0.7c0.7-0.5,1-1.1,1-2
			c0-1.2-0.9-2.2-2.5-3l-2.8-1.2c-2.2-0.9-3.2-2.3-3.2-4c0-0.6,0.1-1.2,0.4-1.7c0.3-0.5,0.6-1,1.1-1.4s1-0.7,1.6-1
			c0.6-0.2,1.4-0.3,2.1-0.3c1.6,0,3.1,0.4,4.8,1.2c0,0.6-0.2,1.1-0.7,1.5c-0.8-0.4-1.5-0.7-2.2-0.9c-0.7-0.2-1.3-0.3-1.8-0.3
			c-0.5,0-1,0.1-1.4,0.2c-0.4,0.1-0.8,0.3-1.1,0.6c-0.3,0.2-0.5,0.5-0.7,0.8c-0.2,0.3-0.2,0.6-0.2,1c0,0.7,0.2,1.3,0.6,1.6
			c0.4,0.4,1,0.7,1.7,1l2.7,1.2c2.4,1,3.6,2.5,3.6,4.4c0,1.4-0.5,2.5-1.4,3.4c-0.9,0.9-2.4,1.3-4.4,1.3
			C59.4,111,57.6,110.4,55.9,109.2z"/>
		<path class="st0" d="M75.4,95.9l-1.3,0v14.9c-0.3,0-0.6,0.1-0.9,0.1c-0.3,0-0.7,0-0.9-0.1V95.8l-1.3,0h-3.1c0-0.3-0.1-0.5-0.1-0.8
			c0-0.2,0-0.5,0.1-0.8h10.6c0.1,0.2,0.1,0.5,0.1,0.8c0,0.5-0.4,0.8-1.1,0.8H75.4z"/>
		<path class="st0" d="M82.2,108.2l0,0.9c0.5,0,1,0,1.5,0h6.6c0,0.3,0,0.6,0,0.8c-0.1,0.6-0.5,0.8-1.2,0.8h-7.6
			c-0.3,0-0.6-0.1-0.8-0.3c-0.2-0.2-0.3-0.5-0.3-0.9V94.4l0.1-0.1h9.3c0,0.2,0,0.4,0,0.8c0,0.3,0,0.6-0.1,0.8h-7.6l0,1.5v4.3l1.4,0
			h5c0,0.3,0.1,0.5,0.1,0.8s0,0.5-0.1,0.8h-5c-0.6,0-1.1,0-1.4,0V108.2z M83.2,92.1l4.6-2.7c0.5,0.3,0.8,0.8,0.9,1.6l-4.9,2.1
			C83.4,92.9,83.2,92.6,83.2,92.1z"/>
		<path class="st0" d="M93.2,94.3l4.9-0.1c1.7,0,2.9,0.4,3.8,1.3c0.9,0.8,1.4,2,1.4,3.5c0,1.1-0.3,2-0.8,2.8
			c-0.6,0.8-1.3,1.3-2.3,1.6c0.7,0.2,1.2,0.9,1.6,1.9l1.3,3.2c0.2,0.5,0.4,0.8,0.5,1.1c0.2,0.3,0.3,0.5,0.5,0.6
			c-0.3,0.4-0.7,0.6-1.3,0.6c-0.3,0-0.6-0.1-0.8-0.3c-0.2-0.2-0.4-0.5-0.5-0.9L100,106c-0.3-0.7-0.6-1.3-1-1.6
			c-0.4-0.4-0.9-0.6-1.7-0.6h-2.5v6.9c-0.3,0-0.6,0.1-0.9,0.1c-0.4,0-0.6,0-0.9-0.1V94.4L93.2,94.3z M94.9,95.7v6.6
			c0.3,0,0.7,0,1.2,0c0.5,0,1.1,0,1.7,0s1.2-0.1,1.7-0.3c0.4-0.2,0.8-0.4,1.1-0.7c0.3-0.3,0.5-0.6,0.6-1c0.1-0.4,0.2-0.8,0.2-1.2
			c0-0.5-0.1-0.9-0.2-1.3c-0.1-0.4-0.3-0.7-0.6-1c-0.3-0.3-0.6-0.5-1.1-0.7c-0.5-0.2-1-0.3-1.7-0.3c-0.7,0-1.2,0-1.7,0
			S95.2,95.7,94.9,95.7z"/>
		<path class="st0" d="M106.5,110.7V94.3c0.2,0,0.5-0.1,0.9-0.1s0.7,0,0.9,0.1v16.4c-0.3,0-0.6,0.1-0.9,0.1S106.7,110.7,106.5,110.7
			z"/>
		<path class="st0" d="M113.8,109.6c-1.7-1.5-2.6-3.9-2.6-7.1c0-1.3,0.1-2.4,0.4-3.5c0.3-1.1,0.7-1.9,1.2-2.7c0.5-0.7,1.2-1.3,2-1.7
			c0.8-0.4,1.7-0.6,2.8-0.6c1.1,0,2.1,0.2,2.9,0.7c0.8,0.5,1.5,1.1,2,1.9c0.5,0.8,0.9,1.7,1.2,2.7c0.3,1,0.4,2.1,0.4,3.2
			c0,1.3-0.1,2.4-0.4,3.5c-0.3,1.1-0.7,1.9-1.2,2.7c-0.5,0.7-1.2,1.3-2,1.7s-1.7,0.6-2.8,0.6C116.1,111,114.8,110.5,113.8,109.6z
			 M113.4,100c-0.1,0.4-0.1,0.8-0.2,1.2c0,0.4,0,0.8,0,1.2c0,0.7,0.1,1.5,0.2,2.3c0.1,0.8,0.3,1.6,0.6,2.3c0.3,0.7,0.8,1.3,1.4,1.7
			c0.6,0.5,1.4,0.7,2.3,0.7c0.6,0,1.2-0.1,1.7-0.3c0.5-0.2,0.9-0.5,1.2-0.9c0.3-0.4,0.6-0.8,0.8-1.3c0.2-0.5,0.4-1,0.5-1.5
			c0.1-0.5,0.2-1,0.3-1.6c0-0.5,0.1-1,0.1-1.4c0-0.7-0.1-1.5-0.2-2.3c-0.1-0.8-0.3-1.6-0.7-2.3c-0.3-0.7-0.8-1.3-1.4-1.7
			c-0.6-0.5-1.4-0.7-2.3-0.7c-0.7,0-1.3,0.1-1.9,0.4c-0.5,0.3-0.9,0.6-1.3,1c-0.3,0.4-0.6,0.9-0.8,1.5
			C113.6,98.9,113.5,99.5,113.4,100z"/>
		<path class="st0" d="M140.4,109.6c-0.2,0.2-0.5,0.4-0.8,0.5c-0.3,0.2-0.7,0.3-1,0.4c-0.4,0.1-0.7,0.2-1.1,0.2
			c-0.4,0.1-0.7,0.1-1,0.1c-0.3,0-0.9,0-1.7,0c-0.8,0-2,0-3.4-0.1l-0.1-0.1V94.4l0.1-0.1c1.4,0,3-0.1,4.9-0.1c1.2,0,2.3,0.2,3.1,0.6
			c0.8,0.4,1.5,1,2,1.8c0.5,0.7,0.9,1.6,1.1,2.6c0.2,1,0.3,2.1,0.3,3.3c0,0.8,0,1.5-0.1,2.2c-0.1,0.7-0.2,1.3-0.4,1.9
			c-0.2,0.6-0.5,1.1-0.8,1.6C141.3,108.7,140.9,109.2,140.4,109.6z M133.2,109.3l3.2,0c0.9,0,1.7-0.2,2.3-0.5
			c0.6-0.4,1.1-0.8,1.4-1.4c0.3-0.6,0.6-1.3,0.7-2c0.1-0.7,0.2-1.5,0.2-2.2c0-1.1-0.1-2.1-0.2-3s-0.3-1.7-0.7-2.3
			c-0.4-0.7-0.8-1.2-1.5-1.5c-0.6-0.4-1.4-0.5-2.3-0.5l-3.2,0V109.3z"/>
		<path class="st0" d="M153.7,106.4l-1.7,0h-3.2l-1.7,0l-1.4,4.3c-0.2,0-0.5,0.1-0.8,0.1s-0.6,0-0.9-0.1l0-0.1l5.5-16.3
			c0.3,0,0.6-0.1,1.1-0.1c0.4,0,0.8,0,1,0.1l5.5,16.3c-0.3,0.2-0.6,0.2-1,0.2c-0.4,0-0.7-0.1-0.8-0.2c-0.2-0.1-0.3-0.4-0.4-0.8
			L153.7,106.4z M147.7,104.8l1.4,0h2.8c0,0,0.2,0,0.6,0c0.4,0,0.6,0,0.8,0l-1.5-4.6c-0.6-1.9-1-3.2-1.2-4h-0.1
			c-0.3,1.2-0.6,2.1-0.8,2.9L147.7,104.8z"/>
		<path class="st0" d="M53.3,124.3v-0.2c0-0.5-0.1-1-0.2-1.5c-0.1-0.4-0.3-0.8-0.5-1.2c-0.2-0.3-0.5-0.6-0.9-0.8
			c-0.4-0.2-0.8-0.3-1.4-0.3c-1.2,0-2,0.5-2.6,1.6c-0.5,1.1-0.8,2.6-0.8,4.8c0,1.7,0.3,3,1,4s1.5,1.4,2.7,1.4c0.6,0,1.2-0.1,1.9-0.4
			c0.7-0.3,1.4-0.7,2.2-1.3c0.3,0.2,0.7,0.5,1,0.9c0.3,0.4,0.5,0.8,0.6,1.2c-0.4,0.4-0.8,0.7-1.2,1c-0.5,0.3-1,0.6-1.5,0.8
			c-0.5,0.2-1.1,0.4-1.7,0.5c-0.6,0.1-1.2,0.2-1.8,0.2c-1.2,0-2.2-0.2-3-0.7c-0.8-0.5-1.5-1.1-2-1.9c-0.5-0.8-0.9-1.7-1.1-2.7
			c-0.2-1-0.3-2.1-0.3-3.2c0-1.4,0.2-2.7,0.5-3.8c0.4-1.1,0.8-2,1.4-2.7c0.6-0.7,1.3-1.3,2.1-1.6c0.8-0.4,1.7-0.5,2.6-0.5
			c0.9,0,1.8,0.1,2.6,0.4c0.8,0.3,1.4,0.6,1.9,1c0.5,0.4,0.9,1,1.2,1.5c0.3,0.6,0.4,1.2,0.4,1.9c0,1.2-0.6,1.8-1.8,1.8
			c-0.2,0-0.4,0-0.6,0C53.8,124.4,53.6,124.4,53.3,124.3z"/>
		<path class="st0" d="M58.3,134.6v-16.4c0.4-0.1,0.9-0.1,1.6-0.1s1.2,0,1.7,0.1v16.4c-0.5,0.1-1,0.1-1.7,0.1S58.7,134.7,58.3,134.6
			z"/>
		<path class="st0" d="M74.8,133.6c-0.5,0.4-1.1,0.7-2,0.9c-0.8,0.2-1.7,0.3-2.5,0.3c-0.4,0-1.1,0-2,0c-0.9,0-2.1,0-3.5-0.1
			l-0.2-0.1v-16.2l0.2-0.1c0.9,0,1.9-0.1,2.8-0.1c0.9,0,1.9,0,2.9,0c1.3,0,2.5,0.2,3.4,0.6c0.9,0.4,1.6,1,2.1,1.8
			c0.5,0.8,0.9,1.6,1.1,2.7c0.2,1,0.3,2.1,0.3,3.2c0,1.6-0.2,3-0.5,4.1C76.5,131.7,75.8,132.7,74.8,133.6z M73.5,122.6
			c-0.5-1.3-1.5-1.9-3-1.9c-0.6,0-1.1,0-1.5,0c-0.4,0-0.8,0-1.1,0v11.6c0.3,0,0.7,0,1,0c0.4,0,0.8,0,1.2,0c0.4,0,0.8,0,1.1-0.1
			c0.3,0,0.6-0.1,0.9-0.2c0.4-0.2,0.8-0.5,1-0.9c0.3-0.4,0.5-0.8,0.6-1.3c0.1-0.5,0.2-1,0.3-1.6c0.1-0.6,0.1-1.2,0.1-1.8
			c0-0.7,0-1.3-0.1-1.9C73.9,123.8,73.7,123.2,73.5,122.6z"/>
		<path class="st0" d="M87.8,130.9l-1.2,0h-3.4l-1.2,0l-1.1,3.8c-0.3,0.1-0.8,0.1-1.4,0.1s-1.1-0.1-1.5-0.2l-0.1-0.2l5.4-16.2
			c0.6-0.1,1.2-0.1,1.9-0.1c0.7,0,1.3,0,1.8,0.1l5.3,16.2c-0.5,0.3-1,0.4-1.7,0.4c-0.6,0-1.1-0.1-1.4-0.4c-0.3-0.2-0.5-0.7-0.7-1.4
			L87.8,130.9z M82.9,128.4l1.1,0H86l1,0l-0.7-2.5c-0.5-1.8-1-3.4-1.3-4.7h-0.1c-0.1,0.7-0.5,2-1.1,4.1L82.9,128.4z"/>
		<path class="st0" d="M103.8,133.6c-0.5,0.4-1.1,0.7-2,0.9c-0.8,0.2-1.7,0.3-2.5,0.3c-0.4,0-1.1,0-2,0c-0.9,0-2.1,0-3.5-0.1
			l-0.2-0.1v-16.2l0.2-0.1c0.9,0,1.9-0.1,2.8-0.1c0.9,0,1.9,0,2.9,0c1.3,0,2.5,0.2,3.4,0.6c0.9,0.4,1.6,1,2.1,1.8
			c0.5,0.8,0.9,1.6,1.1,2.7c0.2,1,0.3,2.1,0.3,3.2c0,1.6-0.2,3-0.5,4.1C105.5,131.7,104.8,132.7,103.8,133.6z M102.5,122.6
			c-0.5-1.3-1.5-1.9-3-1.9c-0.6,0-1.1,0-1.5,0c-0.4,0-0.8,0-1.1,0v11.6c0.3,0,0.7,0,1,0c0.4,0,0.8,0,1.2,0c0.4,0,0.8,0,1.1-0.1
			c0.3,0,0.6-0.1,0.9-0.2c0.4-0.2,0.8-0.5,1-0.9c0.3-0.4,0.5-0.8,0.6-1.3c0.1-0.5,0.2-1,0.3-1.6c0.1-0.6,0.1-1.2,0.1-1.8
			c0-0.7,0-1.3-0.1-1.9C102.9,123.8,102.7,123.2,102.5,122.6z"/>
		<path class="st0" d="M116.8,130.9l-1.2,0h-3.4l-1.2,0l-1.1,3.8c-0.3,0.1-0.8,0.1-1.4,0.1s-1.1-0.1-1.5-0.2l-0.1-0.2l5.4-16.2
			c0.6-0.1,1.2-0.1,1.9-0.1s1.3,0,1.8,0.1l5.3,16.2c-0.5,0.3-1,0.4-1.7,0.4c-0.6,0-1.1-0.1-1.4-0.4c-0.3-0.2-0.5-0.7-0.7-1.4
			L116.8,130.9z M111.9,128.4l1.1,0h2.1l1,0l-0.7-2.5c-0.5-1.8-1-3.4-1.3-4.7h-0.1c-0.1,0.7-0.5,2-1.1,4.1L111.9,128.4z"/>
		<path class="st0" d="M135,118.1l0.2,0.2v16.4c-0.5,0.1-1.1,0.2-1.9,0.2s-1.4,0-2-0.1l-4.4-9.3c-0.6-1.4-1.1-2.5-1.4-3.4l-0.1,0
			c0.2,2.3,0.3,4.4,0.3,6.5v6.1c-0.4,0.1-1,0.1-1.5,0.1c-0.6,0-1.1,0-1.5-0.1v-16.4c0.5-0.1,1.1-0.2,1.8-0.2c0.8,0,1.4,0,2,0.1
			l4.4,9.3l1.6,3.6l0.1,0c-0.2-2.3-0.2-4.5-0.2-6.6v-4.4c0-0.7,0.1-1.2,0.4-1.5c0.3-0.3,0.7-0.5,1.4-0.5H135z"/>
		<path class="st0" d="M138.3,134.6v-16.4c0.4-0.1,0.9-0.1,1.6-0.1s1.2,0,1.7,0.1v16.4c-0.5,0.1-1,0.1-1.7,0.1
			S138.7,134.7,138.3,134.6z"/>
		<path class="st0" d="M152.9,130.9l-1.2,0h-3.4l-1.2,0l-1.1,3.8c-0.3,0.1-0.8,0.1-1.4,0.1s-1.1-0.1-1.5-0.2l-0.1-0.2l5.4-16.2
			c0.6-0.1,1.2-0.1,1.9-0.1s1.3,0,1.8,0.1l5.3,16.2c-0.5,0.3-1,0.4-1.7,0.4s-1.1-0.1-1.4-0.4c-0.3-0.2-0.5-0.7-0.7-1.4L152.9,130.9z
			 M148,128.4l1.1,0h2.1l1,0l-0.7-2.5c-0.5-1.8-1-3.4-1.3-4.7H150c-0.1,0.7-0.5,2-1.1,4.1L148,128.4z"/>
	</g>
</g>
</svg>
