<?xml version="1.0" encoding="utf-8"?>
<!-- Generator: Adobe Illustrator 22.1.0, SVG Export Plug-In . SVG Version: 6.00 Build 0)  -->
<svg version="1.1" id="Layer_1" xmlns="http://www.w3.org/2000/svg" xmlns:xlink="http://www.w3.org/1999/xlink" x="0px" y="0px"
	 viewBox="0 0 236.4 345.7" style="enable-background:new 0 0 236.4 345.7;" xml:space="preserve">
<style type="text/css">
	.st0{fill:#FFFFFF;}
</style>
<path class="st0" d="M45.8,285c3.6-1.3,6-4.4,6-8c0-6.4-4.5-10.3-13.8-10.3c-4.2,0-8.6,0.1-13.2,0.2l-0.4,0.4v38.3l0.4,0.4
	c4.8,0,8.9,0.2,14,0.2c10.5,0,15.1-4.8,15.1-11.1C53.9,290.1,50.1,286.2,45.8,285z M31,271.3c2,0.1,5,0.1,6.8,0.1
	c6,0,7.2,3.1,7.2,5.9c0,2.7-1.3,5.9-7.3,5.9H31V271.3z M38.7,301.5c-2.4,0-5,0.1-7.7,0.1v-13.8h7.3c6.8,0,8.6,4,8.6,6.9
	C47,297.6,45.6,301.5,38.7,301.5z"/>
<path class="st0" d="M86.5,300.3l-2.8-6.7c-0.9-2.2-2.4-4.2-4.5-4.8c4.6-1.3,8.1-5.1,8.1-10.4c0-7.6-5.6-11.7-14.4-11.7
	c-4.3,0-8.9,0.1-13.6,0.2l-0.4,0.4v38.6c1,0.2,2.3,0.2,3.3,0.2c1.1,0,2.3-0.1,3.4-0.2v-15.7h5.2c3.9,0,5.3,2,6.4,4.7l3.2,7.7
	c1,2.5,1.9,3.7,4.4,3.7c1.7,0,3.7-0.7,4.6-1.9C87.9,303.4,87.2,301.9,86.5,300.3z M72.6,285.3c-1.8,0-4.6,0-7,0.1v-13.9
	c2.2,0,5.2,0,7,0c6.2,0,7.7,3.4,7.7,6.9C80.4,281.7,78.9,285.3,72.6,285.3z"/>
<path class="st0" d="M114.9,267c-1-0.2-2.7-0.2-3.8-0.2s-2.9,0.1-3.9,0.2l-14.3,38.5l0.2,0.3c0.9,0.2,2.1,0.4,3.3,0.4
	c1,0,2.1-0.1,2.9-0.2l3.4-9.5c1.1,0,3.2,0.1,3.7,0.1h8.7c0.5,0,2.7-0.1,3.8-0.1l2.3,6.7c0.8,2.5,1.9,3.2,4,3.2c1.5,0,3-0.2,3.9-0.8
	L114.9,267z M113.9,291.5h-6.3c-0.5,0-2.2,0.1-3.2,0.1l3.7-10.3c0.7-2.1,1.8-5.7,2.5-8.3h0.3c0.9,3,2.2,7,3.4,10.3l2.9,8.3
	C116.1,291.5,114.4,291.5,113.9,291.5z"/>
<path class="st0" d="M153.5,284.6l-7.4-2.8c-3.1-1.2-5.3-2.6-5.3-5.1c0-3,2.9-5.4,7.6-5.4c3.2,0,7.5,1.2,10.8,2.7
	c1.4-1.1,2.4-3,2.5-4.7c-3.3-1.5-8.2-3-13.5-3c-8.5,0-14.3,4.8-14.3,11.1c0,4.9,3.4,7.8,8.7,9.9l7.5,2.9c3.7,1.4,5.8,3.5,5.8,6.1
	c-0.1,3.1-3,5.4-8.1,5.4c-4.4,0-9.1-1.7-12.8-3.9c-1.4,1-2.7,2.9-2.9,4.7c4.2,2.7,10,4.3,15.2,4.3c10.5,0,15.5-4.9,15.5-11.5
	C163,290.1,159,286.6,153.5,284.6z"/>
<path class="st0" d="M174.3,266.7c-1,0-2.4,0.1-3.4,0.2v39c1,0.2,2.4,0.2,3.4,0.2c1,0,2.3-0.1,3.4-0.2v-39
	C176.6,266.8,175.3,266.7,174.3,266.7z"/>
<path class="st0" d="M201.1,300.7c-1.7,0-3.7,0.1-5.6,0.2v-30.3c0-2.7-1-3.9-3.8-3.9h-2.5l-0.4,0.3v35.1c0,2.5,1.7,3.8,3.9,3.8h16.6
	c2.4,0,4-1,4.4-2.9c0.1-0.7,0.2-1.8,0.2-2.4H201.1z"/>
<g>
	<path class="st0" d="M30.9,240.6c-2.1,0-4,0.1-6.3,0.1l-0.2,0.2v19.5c0.6,0.1,1.4,0.2,1.9,0.2c0.5,0,1.3,0,1.9-0.2v-6.5h2.6
		c4,0,6.8-2.3,6.8-6.6C37.7,242.8,34.8,240.6,30.9,240.6z M30.6,250.9c-0.4,0-1.5,0-2.4,0.1v-7.3c0.9,0,1.7,0,2.4,0
		c2.6,0,3.1,2.1,3.1,3.6C33.7,248.8,33.2,250.9,30.6,250.9z"/>
	<path class="st0" d="M48.1,240.8c-0.6-0.1-1.6-0.2-2.2-0.2c-0.7,0-1.6,0.1-2.2,0.1l-6.4,19.3l0.1,0.2c0.5,0.2,1.2,0.3,1.8,0.3
		c0.6,0,1.2,0,1.7-0.1l1.4-4.5c0.5,0,1.1,0,1.4,0h4c0.3,0,1,0,1.4,0l0.8,2.6c0.5,1.6,1.1,2.1,2.3,2.1c0.8,0,1.7-0.2,2.2-0.5
		L48.1,240.8z M47,252.9h-2.5c-0.3,0-0.9,0-1.3,0l1.1-3.6c0.4-1.3,1-3.4,1.3-4.9h0.2c0.4,1.7,1.1,3.9,1.6,5.6l0.9,2.9
		C47.8,252.9,47.2,252.9,47,252.9z"/>
	<path class="st0" d="M67.2,240.8H53.5c-0.1,0.6-0.1,1.2-0.1,1.6c0,0.5,0,1,0.1,1.6h3.2c0.4,0,1.3,0,1.7,0h0c0,0.8,0,1.4,0,2.1v14.3
		c0.7,0.1,1.4,0.2,1.9,0.2c0.6,0,1.3,0,2-0.2v-14.3c0-0.8,0-1.3,0-2.1h0c0.4,0,1.3,0,1.7,0h1.3c1.4,0,2.1-0.5,2.1-1.7
		C67.4,241.8,67.3,241.2,67.2,240.8z"/>
	<path class="st0" d="M83,257.4l-1.1-2.9c-0.4-1.2-1.1-2.2-2.1-2.5c1.9-0.7,3.6-2.5,3.6-5.3c0-4.1-2.8-6.1-6.8-6.1
		c-2.1,0-4.2,0.1-6.6,0.1l-0.2,0.2v19.5c0.6,0.1,1.4,0.2,1.9,0.2c0.5,0,1.3,0,1.9-0.2v-7.5h1.8c1.7,0,2.2,0.9,2.7,2.1l1.2,3.4
		c0.6,1.5,1,2.3,2.5,2.3c1,0,2.1-0.5,2.6-1.2C83.7,259,83.3,258.2,83,257.4z M76.4,249.8c-0.5,0-1.6,0-2.7,0.1v-6.3c0.9,0,2,0,2.7,0
		c2.5,0,3.1,1.5,3.1,3.1C79.4,248.3,78.9,249.8,76.4,249.8z"/>
	<path class="st0" d="M89.4,240.6c-0.5,0-1.3,0-1.9,0.1v19.6c0.6,0.1,1.4,0.2,1.9,0.2c0.5,0,1.3,0,1.9-0.2v-19.6
		C90.7,240.7,89.9,240.6,89.4,240.6z"/>
	<path class="st0" d="M105,240.8c-0.6-0.1-1.6-0.2-2.2-0.2c-0.7,0-1.6,0.1-2.2,0.1l-6.4,19.3l0.2,0.2c0.5,0.2,1.2,0.3,1.8,0.3
		c0.6,0,1.2,0,1.7-0.1l1.3-4.5c0.5,0,1.1,0,1.4,0h4c0.3,0,1,0,1.4,0l0.8,2.6c0.5,1.6,1.1,2.1,2.3,2.1c0.8,0,1.7-0.2,2.2-0.5
		L105,240.8z M103.9,252.9h-2.5c-0.3,0-0.9,0-1.3,0l1.1-3.6c0.4-1.3,1-3.4,1.3-4.9h0.2c0.4,1.7,1.1,3.9,1.5,5.6l0.9,2.9
		C104.7,252.9,104.2,252.9,103.9,252.9z"/>
	<path class="st0" d="M129.3,240.8c-0.6-0.1-1.6-0.2-2.2-0.2c-0.7,0-1.6,0.1-2.2,0.1l-6.4,19.3l0.1,0.2c0.5,0.2,1.2,0.3,1.8,0.3
		c0.6,0,1.2,0,1.7-0.1l1.4-4.5c0.5,0,1.1,0,1.4,0h4c0.3,0,1,0,1.4,0l0.8,2.6c0.5,1.6,1.1,2.1,2.3,2.1c0.7,0,1.7-0.2,2.2-0.5
		L129.3,240.8z M128.2,252.9h-2.5c-0.3,0-0.9,0-1.3,0l1.1-3.6c0.4-1.3,1-3.4,1.3-4.9h0.2c0.4,1.7,1.1,3.9,1.6,5.6l0.9,2.9
		C129,252.9,128.4,252.9,128.2,252.9z"/>
	<path class="st0" d="M156.3,240.8c-0.9-0.2-1.9-0.2-2.6-0.2c-0.7,0-1.6,0.1-2.4,0.2l-2.2,8c-0.2,0.8-0.9,3.8-1.1,4.9h-0.2
		c-0.2-1.2-0.9-4.1-1.1-4.9l-2.2-8c-0.8-0.2-1.8-0.2-2.4-0.2c-0.7,0-1.8,0.1-2.6,0.2l-1.5,19.5c0.5,0.1,1.3,0.2,1.9,0.2
		c0.6,0,1.2,0,1.7-0.1l0.5-9.2c0.1-1.8,0.2-4.4,0.2-6.2h0.2l3.4,12.5c0.6,0.1,1.4,0.2,2,0.2c0.5,0,1.4-0.1,2-0.2l3.4-12.5h0.2
		c0,1.8,0.1,4.5,0.2,6.2l0.5,9.2c0.5,0.1,1.1,0.1,1.7,0.1c0.6,0,1.4-0.1,2-0.2L156.3,240.8z"/>
	<path class="st0" d="M170.9,240.8c-0.6-0.1-1.6-0.2-2.2-0.2c-0.7,0-1.6,0.1-2.2,0.1l-6.4,19.3l0.1,0.2c0.5,0.2,1.2,0.3,1.8,0.3
		c0.6,0,1.2,0,1.7-0.1l1.4-4.5c0.5,0,1.1,0,1.4,0h4c0.3,0,1,0,1.4,0l0.8,2.6c0.5,1.6,1.1,2.1,2.3,2.1c0.7,0,1.7-0.2,2.2-0.5
		L170.9,240.8z M169.7,252.9h-2.5c-0.3,0-0.9,0-1.3,0l1.1-3.6c0.4-1.3,1-3.4,1.3-4.9h0.2c0.4,1.7,1.1,3.9,1.5,5.6l0.9,2.9
		C170.5,252.9,170,252.9,169.7,252.9z"/>
	<path class="st0" d="M192.1,242.1c-1.3-1-3.6-1.4-5.1-1.4c-2.4,0-4.3,0-6.8,0.1l-0.2,0.2v19.3l0.2,0.2c2.5,0.1,4.4,0.1,6.8,0.1
		c1.5,0,3.9-0.4,5.1-1.4c2.7-2.1,3.1-5.2,3.1-8.5C195.2,247.2,194.7,244.2,192.1,242.1z M186.9,257.5c-1.1,0-2,0-3.1,0v-13.9
		c1.2,0,2,0,3.1,0c3.8,0,4.3,3.7,4.3,6.9C191.3,253.7,190.7,257.5,186.9,257.5z"/>
	<path class="st0" d="M207.4,240.8c-0.6-0.1-1.6-0.2-2.2-0.2c-0.7,0-1.6,0.1-2.2,0.1l-6.4,19.3l0.1,0.2c0.5,0.2,1.2,0.3,1.8,0.3
		c0.6,0,1.2,0,1.7-0.1l1.4-4.5c0.5,0,1.1,0,1.4,0h4c0.3,0,1,0,1.4,0l0.8,2.6c0.5,1.6,1.1,2.1,2.3,2.1c0.7,0,1.7-0.2,2.2-0.5
		L207.4,240.8z M206.3,252.9h-2.5c-0.3,0-0.9,0-1.3,0l1.1-3.6c0.4-1.3,1-3.4,1.3-4.9h0.2c0.4,1.7,1.1,3.9,1.6,5.6l0.9,2.9
		C207.1,252.9,206.5,252.9,206.3,252.9z"/>
	<path class="st0" d="M49.3,234.1l-4.3,3.6c0.2,0.5,0.6,1.1,1.1,1.3l4.8-2.8C50.7,235.2,49.9,234.3,49.3,234.1z"/>
</g>
<g>
	<path class="st0" d="M31.3,317.8l-2.2,0c-0.1,0.3-0.2,0.6-0.2,0.9c0,0.3,0.1,0.6,0.2,0.7c0.2,0.2,0.4,0.2,0.8,0.2h0.7
		c0,0.1,0,0.2,0,0.4c0,0.2,0,0.3,0,0.6v0.9c-0.2,0-0.4,0.1-0.6,0.1c-0.2,0-0.4,0-0.6,0c-1.6,0-2.3-1-2.3-3.2s0.8-3.2,2.3-3.2
		c0.8,0,1.6,0.2,2.4,0.8c0.1-0.1,0.2-0.2,0.4-0.3c0.1-0.1,0.2-0.2,0.3-0.4c0.1-0.1,0.2-0.3,0.2-0.5c0.1-0.2,0.1-0.3,0.1-0.5
		c-1.1-0.7-2.2-1-3.4-1c-0.6,0-1.2,0.1-1.7,0.3c-0.5,0.2-1,0.5-1.4,0.9c-0.4,0.4-0.7,0.9-1,1.6s-0.4,1.4-0.4,2.2
		c0,0.8,0.1,1.5,0.3,2.1c0.2,0.6,0.4,1.1,0.8,1.5c0.4,0.4,0.8,0.7,1.3,1c0.5,0.2,1.1,0.3,1.8,0.3c1.3,0,2.6-0.2,3.8-0.6v-3.7
		C32.8,318.3,32.3,317.8,31.3,317.8z"/>
	<path class="st0" d="M46.8,316.4c-0.2-0.6-0.5-1.1-0.8-1.6c-0.4-0.4-0.8-0.7-1.3-1c-0.5-0.2-1.1-0.3-1.7-0.3
		c-0.6,0-1.2,0.1-1.7,0.3c-0.5,0.2-1,0.5-1.3,1c-0.4,0.4-0.6,0.9-0.8,1.5s-0.3,1.3-0.3,2.2c0,1.9,0.5,3.3,1.5,4.1
		c0.7,0.6,1.6,0.9,2.6,0.9c0.7,0,1.2-0.1,1.7-0.3c0.5-0.2,1-0.5,1.3-1c0.4-0.4,0.6-0.9,0.8-1.5c0.2-0.6,0.3-1.3,0.3-2.2
		S47,317,46.8,316.4z M44.7,319.8c0,0.4-0.1,0.7-0.3,1c-0.1,0.3-0.3,0.5-0.6,0.7s-0.5,0.3-0.9,0.3c-0.8,0-1.3-0.4-1.5-1.1
		c-0.1-0.4-0.2-0.7-0.2-1c0-0.3-0.1-0.7-0.1-1.1c0-0.3,0-0.6,0-1c0-0.4,0.1-0.7,0.2-1.1c0.1-0.3,0.3-0.6,0.5-0.9
		c0.2-0.2,0.6-0.3,1-0.3c0.5,0,0.8,0.1,1.1,0.4c0.2,0.2,0.4,0.5,0.5,0.9c0.1,0.3,0.2,0.7,0.2,1.1c0,0.4,0,0.8,0,1.1
		C44.8,319.1,44.7,319.4,44.7,319.8z"/>
	<path class="st0" d="M60.5,313.8c-0.3-0.1-0.7-0.2-1.2-0.2c-0.3,0-0.6,0-0.9,0.1l-1.8,7.7c-0.1,0-0.1,0-0.2-0.2
		c-0.2-1.1-0.4-1.9-0.5-2.5l-1.1-4c-0.1-0.4-0.2-0.7-0.4-0.8c-0.2-0.2-0.5-0.3-0.9-0.3c-0.3,0-0.7,0.1-1.2,0.3l2.3,8.4
		c0.1,0.4,0.3,0.7,0.5,0.8c0.2,0.1,0.6,0.2,1.2,0.2c0.5,0,1.1,0,1.6-0.1l2.6-9.3L60.5,313.8z"/>
	<path class="st0" d="M69.8,321.5c-0.3,0-0.6,0-1,0v0l0-1v-1.1h3.1c0.1-0.3,0.1-0.6,0.1-0.9c0-0.3,0-0.6-0.1-0.9h-2.1
		c-0.4,0-0.7,0-0.9,0v-1l0-1h3.8c0.1-0.4,0.2-0.7,0.2-1c0-0.3,0-0.6-0.1-0.9h-6l-0.1,0.1v8.2c0,0.4,0.1,0.7,0.3,1
		c0.2,0.2,0.5,0.3,1,0.3h3.7c0.8,0,1.3-0.4,1.4-1.1c0-0.2,0-0.5,0-0.8H69.8z"/>
	<path class="st0" d="M86,321.7l-0.4-1.2c-0.2-0.7-0.6-1.1-1.1-1.3c0.2-0.1,0.4-0.2,0.7-0.4c0.2-0.2,0.4-0.4,0.5-0.6
		c0.2-0.2,0.3-0.5,0.4-0.7c0.1-0.3,0.1-0.6,0.1-0.9c0-0.5-0.1-0.9-0.2-1.3c-0.2-0.4-0.4-0.7-0.7-1c-0.3-0.2-0.7-0.4-1.1-0.6
		c-0.4-0.1-0.9-0.2-1.4-0.2c-0.3,0-0.8,0-1.3,0c-0.5,0-1.2,0-2,0l-0.1,0.1v9.5c0.3,0.1,0.7,0.1,1.1,0.1c0.4,0,0.8,0,1.1-0.1v-3.5
		h0.6c0.3,0,0.6,0.1,0.8,0.2c0.2,0.1,0.3,0.4,0.4,0.6l0.5,1.5c0.2,0.5,0.3,0.8,0.5,1s0.5,0.3,0.8,0.3c0.3,0,0.6-0.1,0.9-0.2
		c0.3-0.1,0.5-0.3,0.6-0.5C86.4,322.5,86.2,322.2,86,321.7z M83.8,317.5c-0.1,0.2-0.2,0.3-0.4,0.4c-0.2,0.1-0.4,0.1-0.7,0.2
		c-0.3,0-0.7,0-1.1,0v-2.8c0.1,0,0.3,0,0.5,0h0.6c0.9,0,1.3,0.5,1.3,1.4C83.9,317,83.9,317.3,83.8,317.5z"/>
	<path class="st0" d="M100.3,313.6h-0.8c-0.4,0-0.8,0.1-1,0.3c-0.2,0.2-0.3,0.6-0.3,1v1.7c0,1.5,0.1,2.8,0.2,4.1l-0.1,0
		c-0.2-0.5-0.5-1.2-0.9-2.1l-2.2-5c-0.4,0-0.8-0.1-1.3-0.1s-0.9,0-1.3,0.1v9.5c0.3,0.1,0.6,0.1,1,0.1c0.4,0,0.8,0,1-0.1v-2.8
		c0-1.4,0-2.8-0.2-4.2l0,0c0.3,0.8,0.5,1.4,0.8,2l2.2,5c0.4,0.1,0.9,0.1,1.4,0.1c0.5,0,0.9,0,1.3-0.1L100.3,313.6L100.3,313.6z"/>
	<path class="st0" d="M114.7,316.4c-0.2-0.6-0.5-1.1-0.8-1.6c-0.4-0.4-0.8-0.7-1.3-1c-0.5-0.2-1.1-0.3-1.7-0.3
		c-0.6,0-1.2,0.1-1.7,0.3c-0.5,0.2-1,0.5-1.3,1c-0.3,0.4-0.6,0.9-0.8,1.5s-0.3,1.3-0.3,2.2c0,1.9,0.5,3.3,1.5,4.1
		c0.7,0.6,1.6,0.9,2.7,0.9c0.6,0,1.2-0.1,1.7-0.3c0.5-0.2,1-0.5,1.3-1c0.4-0.4,0.6-0.9,0.8-1.5c0.2-0.6,0.3-1.3,0.3-2.2
		S114.9,317,114.7,316.4z M112.6,319.8c0,0.4-0.1,0.7-0.3,1c-0.1,0.3-0.3,0.5-0.6,0.7s-0.6,0.3-0.9,0.3c-0.8,0-1.3-0.4-1.5-1.1
		c-0.1-0.4-0.2-0.7-0.2-1c0-0.3-0.1-0.7-0.1-1.1c0-0.3,0-0.6,0-1c0-0.4,0.1-0.7,0.2-1.1c0.1-0.3,0.3-0.6,0.5-0.9
		c0.2-0.2,0.6-0.3,1-0.3c0.5,0,0.8,0.1,1.1,0.4c0.2,0.2,0.4,0.5,0.5,0.9c0.1,0.3,0.2,0.7,0.2,1.1c0,0.4,0,0.8,0,1.1
		C112.7,319.1,112.7,319.4,112.6,319.8z"/>
	<path class="st0" d="M135.1,315.4c0.2-0.2,0.3-0.4,0.3-0.8c0-0.4,0-0.6-0.1-0.9h-6l-0.1,0.1v9.5c0.3,0.1,0.7,0.1,1.1,0.1
		c0.5,0,0.8,0,1.1-0.1v-3.8h3c0.1-0.3,0.1-0.6,0.1-0.9c0-0.3,0-0.6-0.1-0.9h-3v-0.9l0-1.1h2.8C134.6,315.6,134.9,315.6,135.1,315.4z
		"/>
	<path class="st0" d="M144.7,321.5c-0.3,0-0.6,0-1,0v0l0-1v-1.1h3.1c0.1-0.3,0.1-0.6,0.1-0.9c0-0.3,0-0.6-0.1-0.9h-2.1
		c-0.4,0-0.7,0-1,0v-1l0-1h3.8c0.1-0.4,0.2-0.7,0.2-1c0-0.3,0-0.6-0.1-0.9h-6l-0.1,0.1v8.2c0,0.4,0.1,0.7,0.3,1
		c0.2,0.2,0.5,0.3,1,0.3h3.7c0.8,0,1.3-0.4,1.4-1.1c0-0.2,0-0.5,0-0.8H144.7z"/>
	<path class="st0" d="M161.8,316.6c-0.1-0.6-0.4-1.1-0.7-1.5c-0.3-0.4-0.7-0.8-1.3-1c-0.5-0.2-1.2-0.4-2-0.4c-0.6,0-1.3,0-1.8,0
		s-1.1,0-1.7,0l-0.1,0.1v9.4l0.1,0.1c0.8,0,1.5,0,2,0c0.5,0,1,0,1.2,0c0.6,0,1.1-0.1,1.6-0.2c0.5-0.1,0.9-0.3,1.2-0.5
		c0.6-0.5,1-1,1.2-1.7c0.2-0.7,0.3-1.5,0.3-2.4C162,317.8,162,317.2,161.8,316.6z M157.9,321.6h-0.8c-0.2,0-0.4,0-0.6,0v-6.2
		c0.2,0,0.4,0,0.6,0h0.8c1.2,0,1.8,1,1.8,3.1C159.7,320.6,159.1,321.6,157.9,321.6z"/>
	<path class="st0" d="M171.6,321.5c-0.3,0-0.6,0-1,0v0l0-1v-1.1h3.1c0.1-0.3,0.1-0.6,0.1-0.9c0-0.3,0-0.6-0.1-0.9h-2.1
		c-0.4,0-0.7,0-0.9,0v-1l0-1h3.8c0.1-0.4,0.2-0.7,0.2-1c0-0.3,0-0.6-0.1-0.9h-6l-0.1,0.1v8.2c0,0.4,0.1,0.7,0.3,1
		c0.2,0.2,0.5,0.3,0.9,0.3h3.7c0.8,0,1.3-0.4,1.4-1.1c0-0.2,0-0.5,0-0.8H171.6z"/>
	<path class="st0" d="M187.8,321.7l-0.4-1.2c-0.2-0.7-0.6-1.1-1.1-1.3c0.2-0.1,0.4-0.2,0.6-0.4c0.2-0.2,0.4-0.4,0.6-0.6
		c0.1-0.2,0.3-0.5,0.4-0.7c0.1-0.3,0.1-0.6,0.1-0.9c0-0.5-0.1-0.9-0.2-1.3c-0.2-0.4-0.4-0.7-0.7-1c-0.3-0.2-0.6-0.4-1.1-0.6
		c-0.4-0.1-0.9-0.2-1.4-0.2c-0.3,0-0.8,0-1.3,0c-0.6,0-1.2,0-2,0l-0.1,0.1v9.5c0.3,0.1,0.7,0.1,1.1,0.1c0.4,0,0.8,0,1.1-0.1v-3.5
		h0.6c0.4,0,0.6,0.1,0.8,0.2c0.2,0.1,0.3,0.4,0.4,0.6l0.5,1.5c0.2,0.5,0.3,0.8,0.5,1c0.2,0.2,0.5,0.3,0.8,0.3c0.3,0,0.6-0.1,0.9-0.2
		c0.3-0.1,0.5-0.3,0.6-0.5C188.2,322.5,188,322.2,187.8,321.7z M185.6,317.5c-0.1,0.2-0.2,0.3-0.4,0.4c-0.2,0.1-0.4,0.1-0.7,0.2
		c-0.3,0-0.7,0-1.1,0v-2.8c0.1,0,0.3,0,0.5,0h0.6c0.9,0,1.3,0.5,1.3,1.4C185.8,317,185.7,317.3,185.6,317.5z"/>
	<path class="st0" d="M199.3,313.8c-0.3-0.1-0.8-0.1-1.3-0.1c-0.5,0-0.9,0-1.3,0.1l-3.1,9.4l0.1,0.1c0.3,0.1,0.6,0.2,1.1,0.2
		c0.4,0,0.7,0,0.9-0.1l0.6-2c0.1,0,0.3,0,0.6,0h2c0.2,0,0.4,0,0.5,0l0.3,0.9c0.1,0.5,0.3,0.8,0.5,1c0.2,0.2,0.5,0.2,1,0.2
		c0.4,0,0.8-0.1,1.1-0.3L199.3,313.8z M198.7,319.5c-0.1,0-0.2,0-0.2,0h-1l-0.6,0l0.3-1.1c0.4-1.4,0.6-2.3,0.7-2.7h0.1
		c0.3,1.1,0.6,2.1,0.8,2.9l0.2,0.9C198.9,319.5,198.8,319.5,198.7,319.5z"/>
	<path class="st0" d="M211.8,321.4c-0.5,0-0.9,0-1.3,0.1v-6.4c0-1-0.4-1.4-1.3-1.4h-0.8l-0.1,0.1v8.3c0,0.4,0.1,0.7,0.3,1
		c0.2,0.2,0.6,0.3,1,0.3h3.2c0.4,0,0.7-0.1,1-0.3s0.4-0.4,0.4-0.7c0-0.3,0.1-0.6,0.1-1H211.8z"/>
</g>
<path class="st0" d="M146.9,162.8c-45,8.9-79.5,27.1-99.6,40c2.8-13.9,10.3-26.5,21.1-35.8c11.7-10,26.5-15.5,41.9-15.5
	C123.5,151.5,136.1,155.4,146.9,162.8z"/>
<path class="st0" d="M99.8,109.3l109.5,48.3c-7.6-0.2-15-0.1-22.2,0.3c-1.4,0.1-2.8,0.2-4.2,0.2c-6.9,0.5-13.6,1.2-20.1,2.1
	c-1,0.1-2,0.3-3,0.4c-3,0.5-6,1-9,1.5h0c-11.2-8.5-25.2-13.5-40.4-13.5C76.9,148.6,49.2,173,44,205c0,0-0.1,0.1-0.2,0.1
	c-9.8,6.5-15.4,11.2-16.5,12.1v-49.5L99.8,109.3z"/>
<path class="st0" d="M209.3,97.7v56.8l-108.4-47.8c-0.4-0.2-0.8-0.2-1.1-0.2c-0.6,0-1.3,0.2-1.8,0.6l-70.6,57V97.7H209.3z"/>
<path class="st0" d="M209.3,180.6v45.9H27.4v-0.1c1-0.8,6.2-4.9,15.6-10.4c21.1-12.5,63.3-31.9,124.6-35.4
	C180.6,179.7,194.5,179.7,209.3,180.6z"/>
<path class="st0" d="M209.3,97.7v56.8l-108.4-47.8c-0.4-0.2-0.8-0.2-1.1-0.2c-0.6,0-1.3,0.2-1.8,0.6l-70.6,57V97.7H209.3z"/>
<g>
	<path class="st0" d="M209.3,157.6c-7.6-0.2-15-0.1-22.2,0.3c-1.4,0.1-2.8,0.2-4.2,0.2c-6.9,0.5-13.6,1.2-20.1,2.1
		c-1,0.1-2,0.3-3,0.4c-3,0.5-6,1-9,1.5h0c-11.2-8.5-25.2-13.5-40.4-13.5C76.9,148.6,49.2,173,44,205c0,0-0.1,0.1-0.2,0.1
		c-9.8,6.5-15.4,11.2-16.5,12.1v-49.5l72.4-58.4L209.3,157.6z"/>
</g>
<g>
	<defs>
		<path id="SVGID_1_" d="M27.4,167.7v49.6c0,0,5.8-5.1,16.6-12.2c5.2-32,32.9-56.5,66.4-56.5c15.2,0,29.1,5,40.4,13.5
			c18-3.3,37.6-5.1,58.6-4.5L99.8,109.3L27.4,167.7z"/>
	</defs>
	<use xlink:href="#SVGID_1_"  style="overflow:visible;fill:#FFFFFF;"/>
	<clipPath id="SVGID_2_">
		<use xlink:href="#SVGID_1_"  style="overflow:visible;"/>
	</clipPath>
</g>
<g>
	<path class="st0" d="M28,34.4L29.2,18c0.3,0,0.7-0.1,1.2-0.1c0.5,0,0.9,0,1.2,0.1l2.7,8.4c0.1,0.4,0.3,1,0.6,1.9
		c0.2,0.9,0.4,1.4,0.4,1.6h0.1c0.2-1.1,0.6-2.3,1-3.5l2.8-8.4c0.3,0,0.7-0.1,1.2-0.1c0.5,0,0.9,0,1.2,0.1L43,34.4
		c-0.3,0.1-0.6,0.1-0.9,0.1c-0.3,0-0.6,0-0.9-0.1l-0.7-10c0-0.7-0.1-2.2-0.2-4.5h-0.1l-3.8,11.9c-0.4,0.1-0.7,0.1-1,0.1
		s-0.5,0-0.9-0.1l-3.8-11.9h-0.1c0,0.4,0,1.2-0.1,2.3c0,1.1-0.1,1.9-0.1,2.3l-0.7,10c-0.3,0-0.6,0.1-0.9,0.1S28.2,34.5,28,34.4z"/>
	<path class="st0" d="M46.6,34.4V18c0.2,0,0.5-0.1,0.9-0.1c0.4,0,0.7,0,0.9,0.1v16.4c-0.3,0-0.6,0.1-0.9,0.1
		C47.1,34.5,46.8,34.5,46.6,34.4z"/>
	<path class="st0" d="M63.6,17.9l0.1,0.1v16.4c-0.3,0-0.7,0.1-1.1,0.1s-0.8,0-1.2-0.1l-5.8-10.9c-0.5-0.9-1-2-1.6-3.3h-0.1
		c0.1,3,0.1,4.7,0.1,5.2v9c-0.3,0-0.6,0.1-0.9,0.1s-0.5,0-0.8-0.1V18c0.3,0,0.7-0.1,1.1-0.1c0.4,0,0.8,0,1.1,0.1l5.8,10.9
		c0.4,0.7,0.9,1.8,1.7,3.4h0.1C62,30.2,62,28.4,62,26.8v-7.7c0-0.4,0.1-0.7,0.2-0.9c0.1-0.2,0.4-0.3,0.8-0.3H63.6z"/>
	<path class="st0" d="M67.6,34.4V18c0.2,0,0.5-0.1,0.9-0.1s0.7,0,0.9,0.1v16.4c-0.3,0-0.6,0.1-0.9,0.1S67.8,34.5,67.6,34.4z"/>
	<path class="st0" d="M71.9,32.9c0-0.6,0.3-1.1,0.8-1.5c1.6,1.1,3.2,1.7,4.8,1.7c1.1,0,2-0.2,2.7-0.7s1-1.1,1-2c0-1.2-0.9-2.2-2.5-3
		l-2.8-1.2c-2.2-0.9-3.2-2.3-3.2-4c0-0.6,0.1-1.2,0.4-1.7c0.3-0.5,0.6-1,1.1-1.4s1-0.7,1.6-1c0.6-0.2,1.4-0.3,2.1-0.3
		c1.6,0,3.1,0.4,4.8,1.2c0,0.6-0.2,1.1-0.7,1.5c-0.8-0.4-1.5-0.7-2.2-0.9c-0.7-0.2-1.3-0.3-1.8-0.3c-0.5,0-1,0.1-1.4,0.2
		c-0.4,0.1-0.8,0.3-1.1,0.6c-0.3,0.2-0.5,0.5-0.7,0.8c-0.2,0.3-0.2,0.6-0.2,1c0,0.7,0.2,1.3,0.6,1.6c0.4,0.4,1,0.7,1.7,1l2.7,1.2
		c2.4,1,3.6,2.5,3.6,4.4c0,1.4-0.5,2.5-1.4,3.4c-0.9,0.9-2.4,1.3-4.4,1.3C75.4,34.7,73.6,34.1,71.9,32.9z"/>
	<path class="st0" d="M91.4,19.6l-1.3,0v14.9c-0.3,0-0.6,0.1-0.9,0.1c-0.3,0-0.7,0-0.9-0.1V19.5l-1.3,0h-3.1c0-0.3-0.1-0.5-0.1-0.8
		c0-0.2,0-0.5,0.1-0.8h10.6c0.1,0.2,0.1,0.5,0.1,0.8c0,0.5-0.4,0.8-1.1,0.8H91.4z"/>
	<path class="st0" d="M98.2,31.9l0,0.9c0.5,0,1,0,1.5,0h6.6c0,0.3,0,0.6,0,0.8c-0.1,0.6-0.5,0.8-1.2,0.8h-7.6
		c-0.3,0-0.6-0.1-0.8-0.3c-0.2-0.2-0.3-0.5-0.3-0.9V18.1l0.1-0.1h9.3c0,0.2,0,0.4,0,0.8c0,0.3,0,0.6-0.1,0.8h-7.6l0,1.5v4.3l1.4,0h5
		c0,0.3,0.1,0.5,0.1,0.8c0,0.2,0,0.5-0.1,0.8h-5c-0.6,0-1.1,0-1.4,0V31.9z M99.1,15.9l4.6-2.7c0.5,0.3,0.8,0.8,0.9,1.6l-4.9,2.1
		C99.4,16.6,99.2,16.3,99.1,15.9z"/>
	<path class="st0" d="M109.2,18l4.9-0.1c1.7,0,2.9,0.4,3.8,1.3c0.9,0.8,1.4,2,1.4,3.5c0,1.1-0.3,2-0.8,2.8c-0.6,0.8-1.3,1.3-2.3,1.6
		c0.7,0.2,1.2,0.9,1.6,1.9l1.3,3.2c0.2,0.5,0.4,0.8,0.5,1.1c0.2,0.3,0.3,0.5,0.5,0.6c-0.3,0.4-0.7,0.6-1.3,0.6
		c-0.3,0-0.6-0.1-0.8-0.3c-0.2-0.2-0.4-0.5-0.5-0.9l-1.4-3.7c-0.3-0.7-0.6-1.3-1-1.6c-0.4-0.4-0.9-0.6-1.7-0.6h-2.5v6.9
		c-0.3,0-0.6,0.1-0.9,0.1c-0.4,0-0.6,0-0.9-0.1V18.1L109.2,18z M110.9,19.4V26c0.3,0,0.7,0,1.2,0c0.5,0,1.1,0,1.7,0s1.2-0.1,1.7-0.3
		c0.4-0.2,0.8-0.4,1.1-0.7c0.3-0.3,0.5-0.6,0.6-1c0.1-0.4,0.2-0.8,0.2-1.2c0-0.5-0.1-0.9-0.2-1.3c-0.1-0.4-0.3-0.7-0.6-1
		c-0.3-0.3-0.6-0.5-1.1-0.7s-1-0.3-1.7-0.3c-0.7,0-1.2,0-1.7,0C111.6,19.4,111.2,19.4,110.9,19.4z"/>
	<path class="st0" d="M122.5,34.4V18c0.2,0,0.5-0.1,0.9-0.1c0.4,0,0.7,0,0.9,0.1v16.4c-0.3,0-0.6,0.1-0.9,0.1
		C123,34.5,122.7,34.5,122.5,34.4z"/>
	<path class="st0" d="M129.7,33.3c-1.7-1.5-2.6-3.9-2.6-7.1c0-1.3,0.1-2.4,0.4-3.5c0.3-1.1,0.7-1.9,1.2-2.7c0.5-0.7,1.2-1.3,2-1.7
		c0.8-0.4,1.7-0.6,2.8-0.6c1.1,0,2.1,0.2,2.9,0.7c0.8,0.5,1.5,1.1,2,1.9s0.9,1.7,1.2,2.7c0.3,1,0.4,2.1,0.4,3.2
		c0,1.3-0.1,2.4-0.4,3.5c-0.3,1.1-0.7,1.9-1.2,2.7c-0.5,0.7-1.2,1.3-2,1.7c-0.8,0.4-1.7,0.6-2.8,0.6
		C132.1,34.7,130.8,34.2,129.7,33.3z M129.3,23.7c-0.1,0.4-0.1,0.8-0.2,1.2s0,0.8,0,1.2c0,0.7,0.1,1.5,0.2,2.3s0.3,1.6,0.6,2.3
		c0.3,0.7,0.8,1.3,1.4,1.7c0.6,0.5,1.4,0.7,2.3,0.7c0.6,0,1.2-0.1,1.7-0.3s0.9-0.5,1.2-0.9c0.3-0.4,0.6-0.8,0.8-1.3
		c0.2-0.5,0.4-1,0.5-1.5c0.1-0.5,0.2-1,0.3-1.6c0-0.5,0.1-1,0.1-1.4c0-0.7-0.1-1.5-0.2-2.3c-0.1-0.8-0.3-1.6-0.7-2.3
		c-0.3-0.7-0.8-1.3-1.4-1.7c-0.6-0.5-1.4-0.7-2.3-0.7c-0.7,0-1.3,0.1-1.9,0.4c-0.5,0.3-0.9,0.6-1.3,1c-0.3,0.4-0.6,0.9-0.8,1.5
		C129.6,22.6,129.4,23.2,129.3,23.7z"/>
	<path class="st0" d="M156.4,33.3c-0.2,0.2-0.5,0.4-0.8,0.5s-0.7,0.3-1,0.4c-0.4,0.1-0.7,0.2-1.1,0.2c-0.4,0.1-0.7,0.1-1,0.1
		c-0.3,0-0.9,0-1.7,0c-0.8,0-2,0-3.4-0.1l-0.1-0.1V18.1l0.1-0.1c1.4,0,3-0.1,4.9-0.1c1.2,0,2.3,0.2,3.1,0.6c0.8,0.4,1.5,1,2,1.8
		c0.5,0.7,0.9,1.6,1.1,2.6c0.2,1,0.3,2.1,0.3,3.3c0,0.8,0,1.5-0.1,2.2c-0.1,0.7-0.2,1.3-0.4,1.9c-0.2,0.6-0.5,1.1-0.8,1.6
		C157.3,32.4,156.9,32.9,156.4,33.3z M149.2,33l3.2,0c0.9,0,1.7-0.2,2.3-0.5c0.6-0.4,1.1-0.8,1.4-1.4c0.3-0.6,0.6-1.3,0.7-2
		c0.1-0.7,0.2-1.5,0.2-2.2c0-1.1-0.1-2.1-0.2-3c-0.1-0.9-0.3-1.7-0.7-2.3c-0.4-0.7-0.8-1.2-1.5-1.5c-0.6-0.4-1.4-0.5-2.3-0.5l-3.2,0
		V33z"/>
	<path class="st0" d="M169.7,30.1l-1.7,0h-3.2l-1.7,0l-1.4,4.3c-0.2,0-0.5,0.1-0.8,0.1c-0.3,0-0.6,0-0.9-0.1l0-0.1l5.5-16.3
		c0.3,0,0.6-0.1,1.1-0.1c0.4,0,0.8,0,1,0.1l5.5,16.3c-0.3,0.2-0.6,0.2-1,0.2c-0.4,0-0.7-0.1-0.8-0.2c-0.2-0.1-0.3-0.4-0.4-0.8
		L169.7,30.1z M163.7,28.6l1.4,0h2.8c0,0,0.2,0,0.6,0c0.4,0,0.6,0,0.8,0l-1.5-4.6c-0.6-1.9-1-3.2-1.2-4h-0.1
		c-0.3,1.2-0.6,2.1-0.8,2.9L163.7,28.6z"/>
	<path class="st0" d="M36.7,48.1v-0.2c0-0.5-0.1-1-0.2-1.5c-0.1-0.4-0.3-0.8-0.5-1.2c-0.2-0.3-0.5-0.6-0.9-0.8
		c-0.4-0.2-0.8-0.3-1.4-0.3c-1.2,0-2,0.5-2.6,1.6c-0.5,1.1-0.8,2.6-0.8,4.8c0,1.7,0.3,3,1,4c0.6,0.9,1.5,1.4,2.7,1.4
		c0.6,0,1.2-0.1,1.9-0.4c0.7-0.3,1.4-0.7,2.2-1.3c0.3,0.2,0.7,0.5,1,0.9c0.3,0.4,0.5,0.8,0.6,1.2c-0.4,0.4-0.8,0.7-1.2,1
		c-0.5,0.3-1,0.6-1.5,0.8c-0.5,0.2-1.1,0.4-1.7,0.5c-0.6,0.1-1.2,0.2-1.8,0.2c-1.2,0-2.2-0.2-3-0.7c-0.8-0.5-1.5-1.1-2-1.9
		c-0.5-0.8-0.9-1.7-1.1-2.7c-0.2-1-0.3-2.1-0.3-3.2c0-1.4,0.2-2.7,0.5-3.8c0.4-1.1,0.8-2,1.4-2.7c0.6-0.7,1.3-1.3,2.1-1.6
		c0.8-0.4,1.7-0.5,2.6-0.5c0.9,0,1.8,0.1,2.6,0.4c0.8,0.3,1.4,0.6,1.9,1c0.5,0.4,0.9,1,1.2,1.5c0.3,0.6,0.4,1.2,0.4,1.9
		c0,1.2-0.6,1.8-1.8,1.8c-0.2,0-0.4,0-0.6,0C37.2,48.2,37,48.1,36.7,48.1z"/>
	<path class="st0" d="M41.7,58.3V41.9c0.4-0.1,0.9-0.1,1.6-0.1c0.7,0,1.2,0,1.7,0.1v16.4c-0.5,0.1-1,0.1-1.7,0.1
		C42.6,58.5,42.1,58.4,41.7,58.3z"/>
	<path class="st0" d="M58.2,57.3c-0.5,0.4-1.1,0.7-2,0.9s-1.7,0.3-2.5,0.3c-0.4,0-1.1,0-2,0c-0.9,0-2.1,0-3.5-0.1l-0.2-0.1V42
		l0.2-0.1c0.9,0,1.9-0.1,2.8-0.1c0.9,0,1.9,0,2.9,0c1.3,0,2.5,0.2,3.4,0.6c0.9,0.4,1.6,1,2.1,1.8c0.5,0.8,0.9,1.6,1.1,2.7
		c0.2,1,0.3,2.1,0.3,3.2c0,1.6-0.2,3-0.5,4.1C59.9,55.5,59.2,56.4,58.2,57.3z M56.9,46.3c-0.5-1.3-1.5-1.9-3-1.9c-0.6,0-1.1,0-1.5,0
		c-0.4,0-0.8,0-1.1,0v11.6c0.3,0,0.7,0,1,0c0.4,0,0.8,0,1.2,0c0.4,0,0.8,0,1.1-0.1c0.3,0,0.6-0.1,0.9-0.2c0.4-0.2,0.8-0.5,1-0.9
		c0.3-0.4,0.5-0.8,0.6-1.3c0.1-0.5,0.2-1,0.3-1.6c0.1-0.6,0.1-1.2,0.1-1.8c0-0.7,0-1.3-0.1-1.9C57.3,47.5,57.1,46.9,56.9,46.3z"/>
	<path class="st0" d="M71.2,54.6l-1.2,0h-3.4l-1.2,0l-1.1,3.8c-0.3,0.1-0.8,0.1-1.4,0.1c-0.6,0-1.1-0.1-1.5-0.2l-0.1-0.2l5.4-16.2
		c0.6-0.1,1.2-0.1,1.9-0.1s1.3,0,1.8,0.1l5.3,16.2c-0.5,0.3-1,0.4-1.7,0.4c-0.6,0-1.1-0.1-1.4-0.4c-0.3-0.2-0.5-0.7-0.7-1.4
		L71.2,54.6z M66.3,52.1l1.1,0h2.1l1,0l-0.7-2.5c-0.5-1.8-1-3.4-1.3-4.7h-0.1c-0.1,0.7-0.5,2-1.1,4.1L66.3,52.1z"/>
	<path class="st0" d="M87.2,57.3c-0.5,0.4-1.1,0.7-2,0.9s-1.7,0.3-2.5,0.3c-0.4,0-1.1,0-2,0c-0.9,0-2.1,0-3.5-0.1L77,58.2V42
		l0.2-0.1c0.9,0,1.9-0.1,2.8-0.1c0.9,0,1.9,0,2.9,0c1.3,0,2.5,0.2,3.4,0.6c0.9,0.4,1.6,1,2.1,1.8c0.5,0.8,0.9,1.6,1.1,2.7
		c0.2,1,0.3,2.1,0.3,3.2c0,1.6-0.2,3-0.5,4.1C88.9,55.5,88.2,56.4,87.2,57.3z M85.9,46.3c-0.5-1.3-1.5-1.9-3-1.9c-0.6,0-1.1,0-1.5,0
		c-0.4,0-0.8,0-1.1,0v11.6c0.3,0,0.7,0,1,0c0.4,0,0.8,0,1.2,0c0.4,0,0.8,0,1.1-0.1c0.3,0,0.6-0.1,0.9-0.2c0.4-0.2,0.8-0.5,1-0.9
		c0.3-0.4,0.5-0.8,0.6-1.3c0.1-0.5,0.2-1,0.3-1.6c0.1-0.6,0.1-1.2,0.1-1.8c0-0.7,0-1.3-0.1-1.9C86.3,47.5,86.1,46.9,85.9,46.3z"/>
	<path class="st0" d="M100.2,54.6l-1.2,0h-3.4l-1.2,0l-1.1,3.8c-0.3,0.1-0.8,0.1-1.4,0.1c-0.6,0-1.1-0.1-1.5-0.2l-0.1-0.2l5.4-16.2
		c0.6-0.1,1.2-0.1,1.9-0.1s1.3,0,1.8,0.1l5.3,16.2c-0.5,0.3-1,0.4-1.7,0.4s-1.1-0.1-1.4-0.4c-0.3-0.2-0.5-0.7-0.7-1.4L100.2,54.6z
		 M95.3,52.1l1.1,0h2.1l1,0l-0.7-2.5c-0.5-1.8-1-3.4-1.3-4.7h-0.1c-0.1,0.7-0.5,2-1.1,4.1L95.3,52.1z"/>
	<path class="st0" d="M118.4,41.8l0.2,0.2v16.4c-0.5,0.1-1.1,0.2-1.9,0.2s-1.4,0-2-0.1l-4.4-9.3c-0.6-1.4-1.1-2.5-1.4-3.4l-0.1,0
		c0.2,2.3,0.3,4.4,0.3,6.5v6.1c-0.4,0.1-1,0.1-1.5,0.1c-0.6,0-1.1,0-1.5-0.1V42c0.5-0.1,1.1-0.2,1.8-0.2c0.8,0,1.4,0,2,0.1l4.4,9.3
		l1.6,3.6l0.1,0c-0.2-2.3-0.2-4.5-0.2-6.6v-4.4c0-0.7,0.1-1.2,0.4-1.5c0.3-0.3,0.7-0.5,1.4-0.5H118.4z"/>
	<path class="st0" d="M121.7,58.3V41.9c0.4-0.1,0.9-0.1,1.6-0.1s1.2,0,1.7,0.1v16.4c-0.5,0.1-1,0.1-1.7,0.1S122.1,58.4,121.7,58.3z"
		/>
	<path class="st0" d="M136.3,54.6l-1.2,0h-3.4l-1.2,0l-1.1,3.8c-0.3,0.1-0.8,0.1-1.4,0.1s-1.1-0.1-1.5-0.2l-0.1-0.2l5.4-16.2
		c0.6-0.1,1.2-0.1,1.9-0.1c0.7,0,1.3,0,1.8,0.1l5.3,16.2c-0.5,0.3-1,0.4-1.7,0.4s-1.1-0.1-1.4-0.4c-0.3-0.2-0.5-0.7-0.7-1.4
		L136.3,54.6z M131.4,52.1l1.1,0h2.1l1,0l-0.7-2.5c-0.5-1.8-1-3.4-1.3-4.7h-0.1c-0.1,0.7-0.5,2-1.1,4.1L131.4,52.1z"/>
</g>
</svg>
