<?xml version="1.0" encoding="utf-8"?>
<!-- Generator: Adobe Illustrator 22.1.0, SVG Export Plug-In . SVG Version: 6.00 Build 0)  -->
<svg version="1.1" id="Camada_1" xmlns="http://www.w3.org/2000/svg" xmlns:xlink="http://www.w3.org/1999/xlink" x="0px" y="0px"
	 viewBox="0 0 109 47.2" style="enable-background:new 0 0 109 47.2;" xml:space="preserve">
<style type="text/css">
	.st0{fill:#FFFFFF;}
	.st1{fill:#FFB900;}
	.st2{fill:#007333;}
</style>
<g>
	<g>
		<path class="st0" d="M58.5,13.4c0.1,0,0.3,0,0.4-0.1c0.1,0,0.3,0,0.4,0c0.1,0,0.3,0,0.4,0c0.1,0,0.3,0,0.4,0.1l2.4,8.1
			c-0.3,0-0.6,0.1-0.8,0.1c-0.3,0-0.5,0-0.8-0.1l-0.4-1.6H58l-0.4,1.6c-0.3,0-0.5,0.1-0.7,0.1c-0.3,0-0.5,0-0.8-0.1L58.5,13.4z
			 M60.2,18.5l-0.9-3.4l-0.9,3.4H60.2z"/>
		<path class="st0" d="M66.9,20.1c0.1,0.2,0.2,0.3,0.2,0.5c0.1,0.2,0.1,0.4,0.1,0.7c-0.3,0.1-0.5,0.2-0.8,0.2
			c-0.2,0-0.5,0.1-0.8,0.1c-0.5,0-0.9-0.1-1.2-0.2c-0.3-0.2-0.6-0.4-0.8-0.6c-0.2-0.3-0.4-0.6-0.5-1c-0.1-0.4-0.2-0.8-0.2-1.2
			c0-0.4,0.1-0.8,0.2-1.2c0.1-0.4,0.3-0.7,0.5-1c0.2-0.3,0.5-0.5,0.8-0.7c0.3-0.2,0.7-0.2,1.2-0.2c0.2,0,0.3,0,0.4,0
			c0.1,0,0.3,0,0.4,0c0.1,0,0.2,0.1,0.4,0.1c0.1,0,0.3,0.1,0.4,0.1c0,0.2,0,0.4-0.1,0.6c0,0.2-0.1,0.4-0.2,0.6
			c-0.2-0.1-0.4-0.1-0.6-0.2c-0.2,0-0.3,0-0.5,0c-0.4,0-0.8,0.2-1,0.5c-0.2,0.3-0.3,0.7-0.3,1.3c0,0.6,0.1,1.1,0.4,1.3
			c0.2,0.3,0.6,0.4,1,0.4c0.1,0,0.2,0,0.3,0c0.1,0,0.2,0,0.3,0c0.1,0,0.2,0,0.3-0.1C66.7,20.2,66.8,20.2,66.9,20.1z"/>
		<path class="st0" d="M69.3,19.1c0,0.5,0.2,0.8,0.4,1s0.6,0.3,1.1,0.3c0.2,0,0.5,0,0.7-0.1c0.3,0,0.5-0.1,0.7-0.2
			c0.1,0.2,0.1,0.3,0.2,0.5c0.1,0.2,0.1,0.4,0.1,0.7c-0.6,0.2-1.2,0.3-1.9,0.3c-0.5,0-0.9-0.1-1.3-0.2c-0.4-0.2-0.7-0.4-0.9-0.6
			c-0.2-0.3-0.4-0.6-0.5-1c-0.1-0.4-0.2-0.8-0.2-1.2c0-0.4,0.1-0.8,0.2-1.2c0.1-0.4,0.3-0.7,0.5-1c0.2-0.3,0.5-0.5,0.8-0.7
			s0.7-0.2,1.2-0.2c0.4,0,0.7,0.1,1,0.2c0.3,0.1,0.5,0.3,0.8,0.6s0.4,0.5,0.5,0.9c0.1,0.3,0.2,0.7,0.2,1.1c0,0.1,0,0.3,0,0.4
			c0,0.1,0,0.3,0,0.3H69.3z M71.4,17.9c0-0.4-0.1-0.7-0.3-0.9c-0.2-0.2-0.4-0.3-0.7-0.3c-0.4,0-0.6,0.1-0.8,0.3s-0.3,0.5-0.3,0.9
			H71.4z"/>
		<path class="st0" d="M75,18.9c-0.4-0.1-0.7-0.3-0.9-0.5c-0.2-0.2-0.3-0.6-0.3-1.1c0-0.6,0.2-1,0.6-1.3c0.4-0.3,0.9-0.5,1.6-0.5
			c0.3,0,0.5,0,0.8,0.1c0.3,0.1,0.5,0.1,0.8,0.2c0,0.2,0,0.4-0.1,0.6c-0.1,0.2-0.1,0.4-0.2,0.6c-0.2-0.1-0.4-0.1-0.6-0.2
			s-0.4-0.1-0.6-0.1c-0.2,0-0.4,0-0.6,0.1c-0.1,0.1-0.2,0.2-0.2,0.4c0,0.2,0,0.3,0.1,0.4c0.1,0.1,0.2,0.1,0.4,0.2l0.6,0.2
			c0.2,0.1,0.4,0.1,0.5,0.2s0.3,0.2,0.4,0.3c0.1,0.1,0.2,0.3,0.3,0.5c0.1,0.2,0.1,0.4,0.1,0.7c0,0.3-0.1,0.5-0.2,0.8
			c-0.1,0.2-0.3,0.5-0.5,0.6c-0.2,0.2-0.5,0.3-0.8,0.4c-0.3,0.1-0.6,0.2-1,0.2c-0.2,0-0.3,0-0.5,0c-0.1,0-0.3,0-0.4-0.1
			c-0.1,0-0.3-0.1-0.4-0.1c-0.1,0-0.3-0.1-0.4-0.1c0-0.2,0-0.4,0.1-0.6c0.1-0.2,0.1-0.4,0.2-0.6c0.2,0.1,0.5,0.2,0.7,0.2
			c0.2,0,0.4,0.1,0.7,0.1c0.1,0,0.2,0,0.3,0c0.1,0,0.2-0.1,0.3-0.1c0.1,0,0.2-0.1,0.2-0.2c0.1-0.1,0.1-0.2,0.1-0.3
			c0-0.2-0.1-0.3-0.2-0.4c-0.1-0.1-0.2-0.1-0.4-0.2L75,18.9z"/>
		<path class="st0" d="M79.6,18.9c-0.4-0.1-0.7-0.3-0.9-0.5c-0.2-0.2-0.3-0.6-0.3-1.1c0-0.6,0.2-1,0.6-1.3c0.4-0.3,0.9-0.5,1.6-0.5
			c0.3,0,0.5,0,0.8,0.1c0.3,0.1,0.5,0.1,0.8,0.2c0,0.2,0,0.4-0.1,0.6c-0.1,0.2-0.1,0.4-0.2,0.6c-0.2-0.1-0.4-0.1-0.6-0.2
			s-0.4-0.1-0.6-0.1c-0.2,0-0.4,0-0.6,0.1c-0.1,0.1-0.2,0.2-0.2,0.4c0,0.2,0,0.3,0.1,0.4c0.1,0.1,0.2,0.1,0.4,0.2l0.6,0.2
			c0.2,0.1,0.4,0.1,0.5,0.2s0.3,0.2,0.4,0.3c0.1,0.1,0.2,0.3,0.3,0.5c0.1,0.2,0.1,0.4,0.1,0.7c0,0.3-0.1,0.5-0.2,0.8
			s-0.3,0.5-0.5,0.6c-0.2,0.2-0.5,0.3-0.8,0.4c-0.3,0.1-0.6,0.2-1,0.2c-0.2,0-0.3,0-0.5,0c-0.1,0-0.3,0-0.4-0.1
			c-0.1,0-0.3-0.1-0.4-0.1c-0.1,0-0.3-0.1-0.4-0.1c0-0.2,0-0.4,0.1-0.6c0.1-0.2,0.1-0.4,0.2-0.6c0.2,0.1,0.5,0.2,0.7,0.2
			c0.2,0,0.4,0.1,0.7,0.1c0.1,0,0.2,0,0.3,0c0.1,0,0.2-0.1,0.3-0.1c0.1,0,0.2-0.1,0.2-0.2c0.1-0.1,0.1-0.2,0.1-0.3
			c0-0.2-0.1-0.3-0.2-0.4c-0.1-0.1-0.2-0.1-0.4-0.2L79.6,18.9z"/>
		<path class="st0" d="M85.7,21.6c-0.4,0-0.8-0.1-1.2-0.2c-0.3-0.2-0.6-0.4-0.8-0.6c-0.2-0.3-0.4-0.6-0.5-1
			c-0.1-0.4-0.2-0.8-0.2-1.2c0-0.4,0.1-0.8,0.2-1.2c0.1-0.4,0.3-0.7,0.5-1c0.2-0.3,0.5-0.5,0.8-0.7c0.3-0.2,0.7-0.2,1.2-0.2
			c0.4,0,0.8,0.1,1.2,0.2c0.3,0.2,0.6,0.4,0.8,0.7c0.2,0.3,0.4,0.6,0.5,1c0.1,0.4,0.2,0.8,0.2,1.2c0,0.4-0.1,0.8-0.2,1.2
			c-0.1,0.4-0.3,0.7-0.5,1c-0.2,0.3-0.5,0.5-0.8,0.6C86.6,21.6,86.2,21.6,85.7,21.6z M85.7,20.4c0.4,0,0.7-0.2,0.9-0.5
			c0.2-0.3,0.3-0.8,0.3-1.4c0-0.6-0.1-1-0.3-1.4c-0.2-0.3-0.5-0.5-0.9-0.5c-0.4,0-0.7,0.2-0.8,0.5s-0.3,0.8-0.3,1.4
			c0,0.6,0.1,1,0.3,1.4C85.1,20.3,85.3,20.4,85.7,20.4z"/>
		<path class="st0" d="M94.5,17.6c0-0.2,0-0.3-0.1-0.4c-0.1-0.1-0.1-0.2-0.2-0.3c-0.1-0.1-0.2-0.1-0.4-0.1c-0.1,0-0.3,0-0.5,0
			c-0.4,0-0.8,0.1-1.2,0.2c-0.1-0.2-0.2-0.4-0.2-0.6c0-0.2-0.1-0.4-0.1-0.6c0.3-0.1,0.6-0.2,0.9-0.2c0.3-0.1,0.6-0.1,0.9-0.1
			c0.7,0,1.3,0.2,1.7,0.6c0.4,0.4,0.6,1,0.6,1.8v3.4c-0.2,0.1-0.5,0.2-0.9,0.2c-0.4,0.1-0.8,0.1-1.2,0.1c-0.4,0-0.7,0-1-0.1
			c-0.3-0.1-0.6-0.2-0.8-0.3c-0.2-0.2-0.4-0.4-0.5-0.6c-0.1-0.2-0.2-0.6-0.2-0.9c0-0.4,0.1-0.7,0.2-0.9c0.1-0.2,0.3-0.4,0.6-0.6
			c0.2-0.1,0.5-0.3,0.8-0.3c0.3-0.1,0.6-0.1,0.8-0.1c0.2,0,0.4,0,0.7,0V17.6z M91.8,13.4c0.1,0,0.3,0,0.4-0.1c0.1,0,0.3,0,0.5,0
			c0.3,0,0.7,0,1,0.1l1.2,1.4c-0.2,0-0.5,0.1-0.7,0.1c-0.1,0-0.3,0-0.4,0c-0.1,0-0.2,0-0.3,0L91.8,13.4z M94.5,18.8
			c-0.1,0-0.2,0-0.3,0c-0.1,0-0.2,0-0.3,0c-0.3,0-0.6,0.1-0.8,0.2c-0.2,0.1-0.3,0.3-0.3,0.6c0,0.2,0,0.3,0.1,0.5
			c0.1,0.1,0.2,0.2,0.3,0.2c0.1,0,0.2,0.1,0.3,0.1c0.1,0,0.2,0,0.3,0c0.1,0,0.2,0,0.3,0c0.1,0,0.2,0,0.3-0.1V18.8z"/>
		<path class="st0" d="M56.7,25.1c0.3,0,0.5-0.1,0.8-0.1c0.3,0,0.5,0,0.8,0.1v8.1c-0.3,0-0.5,0.1-0.8,0.1c-0.3,0-0.5,0-0.8-0.1V25.1
			z"/>
		<path class="st0" d="M59.6,27.3c0.1,0,0.2,0,0.3-0.1c0.1,0,0.2,0,0.3,0c0.1,0,0.2,0,0.3,0s0.2,0,0.3,0.1c0,0,0,0.1,0.1,0.2
			c0,0.1,0,0.1,0,0.2c0,0.1,0,0.2,0,0.2c0,0.1,0,0.1,0,0.2c0.1-0.1,0.2-0.2,0.3-0.3c0.1-0.1,0.2-0.2,0.3-0.3
			c0.1-0.1,0.3-0.2,0.4-0.2s0.3-0.1,0.5-0.1c0.6,0,1.1,0.2,1.4,0.5c0.3,0.4,0.5,0.9,0.5,1.7v3.7c-0.3,0-0.5,0.1-0.8,0.1
			c-0.2,0-0.5,0-0.8-0.1v-3.3c0-0.4-0.1-0.7-0.2-0.9c-0.1-0.2-0.3-0.3-0.6-0.3c-0.1,0-0.2,0-0.4,0.1c-0.1,0-0.2,0.1-0.3,0.2
			c-0.1,0.1-0.2,0.3-0.2,0.5c-0.1,0.2-0.1,0.5-0.1,0.8v3.1c-0.3,0-0.5,0.1-0.8,0.1s-0.5,0-0.8-0.1V27.3z"/>
		<path class="st0" d="M66,28.6h-0.9c0-0.1,0-0.2,0-0.3c0-0.1,0-0.2,0-0.3c0-0.1,0-0.2,0-0.3c0-0.1,0-0.2,0-0.3H66v-0.3
			c0-0.4,0.1-0.7,0.2-1s0.2-0.5,0.4-0.7c0.2-0.2,0.4-0.3,0.7-0.4c0.3-0.1,0.6-0.2,0.9-0.2c0.2,0,0.4,0,0.5,0c0.1,0,0.3,0.1,0.5,0.1
			c0,0.2,0,0.5-0.1,0.7c0,0.2-0.1,0.4-0.2,0.6c-0.1,0-0.2,0-0.2-0.1c-0.1,0-0.2,0-0.3,0c-0.2,0-0.4,0.1-0.6,0.2
			c-0.2,0.1-0.2,0.4-0.3,0.8v0.2h1.3c0,0.1,0,0.2,0,0.3c0,0.1,0,0.2,0,0.3c0,0.1,0,0.2,0,0.3c0,0.1,0,0.2,0,0.3h-1.3v4.6
			c-0.3,0-0.5,0.1-0.7,0.1c-0.2,0-0.5,0-0.8-0.1V28.6z"/>
		<path class="st0" d="M71.6,33.3c-0.4,0-0.8-0.1-1.2-0.2c-0.3-0.2-0.6-0.4-0.8-0.6c-0.2-0.3-0.4-0.6-0.5-1S69,30.7,69,30.3
			c0-0.4,0.1-0.8,0.2-1.2c0.1-0.4,0.3-0.7,0.5-1c0.2-0.3,0.5-0.5,0.8-0.7c0.3-0.2,0.7-0.2,1.2-0.2c0.4,0,0.8,0.1,1.2,0.2
			c0.3,0.2,0.6,0.4,0.8,0.7c0.2,0.3,0.4,0.6,0.5,1c0.1,0.4,0.2,0.8,0.2,1.2c0,0.4-0.1,0.8-0.2,1.2c-0.1,0.4-0.3,0.7-0.5,1
			c-0.2,0.3-0.5,0.5-0.8,0.6C72.5,33.3,72.1,33.3,71.6,33.3z M71.6,32.1c0.4,0,0.7-0.2,0.9-0.5c0.2-0.3,0.3-0.8,0.3-1.4
			c0-0.6-0.1-1-0.3-1.4c-0.2-0.3-0.5-0.5-0.9-0.5c-0.4,0-0.7,0.2-0.8,0.5s-0.3,0.8-0.3,1.4c0,0.6,0.1,1,0.3,1.4
			C71,32,71.2,32.1,71.6,32.1z"/>
		<path class="st0" d="M75.3,27.3c0.1,0,0.2,0,0.3-0.1s0.2,0,0.3,0c0.1,0,0.2,0,0.3,0c0.1,0,0.2,0,0.3,0.1c0,0,0,0.1,0.1,0.2
			c0,0.1,0,0.1,0,0.2c0,0.1,0,0.2,0,0.2c0,0.1,0,0.1,0,0.2c0.2-0.2,0.3-0.4,0.6-0.6c0.2-0.2,0.5-0.3,0.8-0.3c0.1,0,0.2,0,0.2,0
			c0.1,0,0.2,0,0.2,0c0,0.1,0,0.2,0,0.3c0,0.1,0,0.2,0,0.3c0,0.1,0,0.3,0,0.4c0,0.2,0,0.3-0.1,0.4c-0.1,0-0.2,0-0.3,0s-0.2,0-0.2,0
			c-0.1,0-0.3,0-0.4,0c-0.1,0-0.3,0.1-0.4,0.2c-0.1,0.1-0.2,0.3-0.3,0.5c-0.1,0.2-0.1,0.5-0.1,1v2.8c-0.1,0-0.3,0-0.4,0
			c-0.1,0-0.3,0-0.4,0c-0.1,0-0.2,0-0.4,0c-0.1,0-0.3,0-0.4,0V27.3z"/>
		<path class="st0" d="M79.3,27.3c0.1,0,0.2,0,0.3-0.1c0.1,0,0.2,0,0.3,0c0.1,0,0.2,0,0.3,0c0.1,0,0.2,0,0.3,0.1c0,0,0,0.1,0.1,0.2
			c0,0.1,0,0.1,0,0.2c0,0.1,0,0.2,0,0.2c0,0.1,0,0.1,0,0.2c0.1-0.1,0.1-0.2,0.2-0.3c0.1-0.1,0.2-0.2,0.3-0.3
			c0.1-0.1,0.3-0.2,0.4-0.2c0.2-0.1,0.3-0.1,0.5-0.1c0.9,0,1.4,0.3,1.6,1c0.1-0.3,0.3-0.5,0.6-0.7c0.3-0.2,0.6-0.3,1-0.3
			c0.6,0,1.1,0.2,1.4,0.5c0.3,0.4,0.4,0.9,0.4,1.7v3.7c-0.3,0-0.5,0.1-0.8,0.1c-0.2,0-0.5,0-0.8-0.1v-3.3c0-0.4,0-0.7-0.1-0.9
			c-0.1-0.2-0.3-0.3-0.6-0.3c-0.1,0-0.2,0-0.4,0.1c-0.1,0-0.2,0.1-0.3,0.2c-0.1,0.1-0.2,0.2-0.2,0.4s-0.1,0.4-0.1,0.7v3.2
			c-0.3,0-0.5,0.1-0.8,0.1s-0.5,0-0.8-0.1v-3.3c0-0.4,0-0.7-0.1-0.9c-0.1-0.2-0.3-0.3-0.6-0.3c-0.1,0-0.2,0-0.4,0.1
			c-0.1,0-0.2,0.1-0.3,0.2c-0.1,0.1-0.2,0.3-0.2,0.5c-0.1,0.2-0.1,0.5-0.1,0.8v3.1c-0.3,0-0.5,0.1-0.8,0.1s-0.5,0-0.8-0.1V27.3z"/>
		<path class="st0" d="M91.2,29.3c0-0.2,0-0.3-0.1-0.4c-0.1-0.1-0.1-0.2-0.2-0.3c-0.1-0.1-0.2-0.1-0.4-0.1c-0.1,0-0.3,0-0.5,0
			c-0.4,0-0.8,0.1-1.2,0.2c-0.1-0.2-0.2-0.4-0.2-0.6c0-0.2-0.1-0.4-0.1-0.6c0.3-0.1,0.6-0.2,0.9-0.2c0.3-0.1,0.6-0.1,0.9-0.1
			c0.7,0,1.3,0.2,1.7,0.6c0.4,0.4,0.6,1,0.6,1.8V33c-0.2,0.1-0.5,0.2-0.9,0.2c-0.4,0.1-0.8,0.1-1.2,0.1c-0.4,0-0.7,0-1-0.1
			c-0.3-0.1-0.6-0.2-0.8-0.3c-0.2-0.2-0.4-0.4-0.5-0.6c-0.1-0.2-0.2-0.6-0.2-0.9c0-0.4,0.1-0.7,0.2-0.9c0.1-0.2,0.3-0.4,0.6-0.6
			c0.2-0.1,0.5-0.3,0.8-0.3c0.3-0.1,0.6-0.1,0.8-0.1c0.2,0,0.4,0,0.7,0V29.3z M91.2,30.5c-0.1,0-0.2,0-0.3,0c-0.1,0-0.2,0-0.3,0
			c-0.3,0-0.6,0.1-0.8,0.2c-0.2,0.1-0.3,0.3-0.3,0.6c0,0.2,0,0.3,0.1,0.5c0.1,0.1,0.2,0.2,0.3,0.2c0.1,0,0.2,0.1,0.3,0.1
			c0.1,0,0.2,0,0.3,0c0.1,0,0.2,0,0.3,0c0.1,0,0.2,0,0.3-0.1V30.5z"/>
		<path class="st0" d="M95.5,33.3c-0.3-0.1-0.6-0.2-0.9-0.4c-0.3-0.2-0.5-0.4-0.6-0.7c-0.2-0.3-0.3-0.6-0.4-0.9
			c-0.1-0.3-0.1-0.7-0.1-1.1c0-0.4,0.1-0.8,0.2-1.2c0.1-0.4,0.3-0.7,0.5-1c0.2-0.3,0.5-0.5,0.8-0.7c0.3-0.2,0.7-0.2,1.2-0.2
			c0.2,0,0.3,0,0.4,0c0.1,0,0.3,0,0.4,0c0.1,0,0.2,0.1,0.4,0.1c0.1,0,0.3,0.1,0.4,0.1c0,0.2,0,0.4-0.1,0.6c0,0.2-0.1,0.4-0.2,0.6
			c-0.2-0.1-0.4-0.1-0.6-0.2c-0.2,0-0.3,0-0.5,0c-0.4,0-0.8,0.2-1,0.5c-0.2,0.3-0.3,0.7-0.3,1.3c0,0.6,0.1,1.1,0.4,1.3
			c0.2,0.3,0.6,0.4,1,0.4c0.1,0,0.2,0,0.3,0c0.1,0,0.2,0,0.3,0c0.1,0,0.2,0,0.3-0.1c0.1,0,0.2-0.1,0.3-0.1c0.1,0.2,0.2,0.3,0.2,0.5
			c0.1,0.2,0.1,0.4,0.1,0.7c-0.3,0.1-0.5,0.2-0.8,0.2c-0.2,0-0.5,0.1-0.8,0.1l-0.2,0.5c0,0,0,0,0.1,0c0,0,0.1,0,0.1,0
			c0.4,0,0.7,0.1,0.9,0.3c0.2,0.2,0.3,0.4,0.3,0.7c0,0.4-0.2,0.7-0.5,0.9s-0.7,0.3-1.2,0.3c-0.1,0-0.2,0-0.4,0c-0.1,0-0.3,0-0.5-0.1
			c0-0.1,0-0.3,0.1-0.4c0-0.1,0.1-0.3,0.1-0.4c0.1,0,0.2,0.1,0.3,0.1s0.2,0,0.3,0c0.2,0,0.4,0,0.5-0.1c0.1-0.1,0.2-0.1,0.2-0.3
			s-0.1-0.2-0.2-0.3c-0.1,0-0.3-0.1-0.4-0.1c-0.1,0-0.2,0-0.3,0s-0.2,0-0.3,0.1l-0.1-0.1L95.5,33.3z"/>
		<path class="st0" d="M101.4,29.3c0-0.2,0-0.3-0.1-0.4c-0.1-0.1-0.1-0.2-0.2-0.3c-0.1-0.1-0.2-0.1-0.4-0.1c-0.1,0-0.3,0-0.5,0
			c-0.4,0-0.8,0.1-1.2,0.2c-0.1-0.2-0.2-0.4-0.2-0.6c0-0.2-0.1-0.4-0.1-0.6c0.3-0.1,0.6-0.2,0.9-0.2c0.3-0.1,0.6-0.1,0.9-0.1
			c0.7,0,1.3,0.2,1.7,0.6c0.4,0.4,0.6,1,0.6,1.8V33c-0.2,0.1-0.5,0.2-0.9,0.2c-0.4,0.1-0.8,0.1-1.2,0.1c-0.4,0-0.7,0-1-0.1
			c-0.3-0.1-0.6-0.2-0.8-0.3c-0.2-0.2-0.4-0.4-0.5-0.6c-0.1-0.2-0.2-0.6-0.2-0.9c0-0.4,0.1-0.7,0.2-0.9c0.1-0.2,0.3-0.4,0.6-0.6
			c0.2-0.1,0.5-0.3,0.8-0.3c0.3-0.1,0.6-0.1,0.8-0.1c0.2,0,0.4,0,0.7,0V29.3z M98.8,25.5c0.1-0.2,0.3-0.3,0.5-0.4
			c0.2-0.1,0.4-0.2,0.7-0.2c0.1,0,0.3,0,0.4,0.1c0.1,0,0.2,0.1,0.4,0.1c0.1,0,0.2,0.1,0.4,0.1c0.1,0,0.3,0.1,0.4,0.1
			c0.1,0,0.2,0,0.3-0.1c0.1,0,0.2-0.1,0.4-0.3c0.1,0.1,0.2,0.3,0.3,0.4c0.1,0.2,0.1,0.3,0.2,0.5c-0.1,0.2-0.3,0.3-0.5,0.4
			c-0.2,0.1-0.4,0.2-0.7,0.2c-0.1,0-0.3,0-0.4-0.1c-0.1,0-0.3-0.1-0.4-0.1c-0.1,0-0.2-0.1-0.4-0.1c-0.1,0-0.2-0.1-0.4-0.1
			c-0.1,0-0.3,0-0.3,0.1c-0.1,0-0.2,0.1-0.4,0.3c-0.1-0.1-0.2-0.3-0.3-0.4C98.8,25.8,98.8,25.7,98.8,25.5z M101.4,30.5
			c-0.1,0-0.2,0-0.3,0c-0.1,0-0.2,0-0.3,0c-0.3,0-0.6,0.1-0.8,0.2c-0.2,0.1-0.3,0.3-0.3,0.6c0,0.2,0,0.3,0.1,0.5
			c0.1,0.1,0.2,0.2,0.3,0.2c0.1,0,0.2,0.1,0.3,0.1c0.1,0,0.2,0,0.3,0c0.1,0,0.2,0,0.3,0c0.1,0,0.2,0,0.3-0.1V30.5z"/>
		<path class="st0" d="M106.3,33.3c-0.4,0-0.8-0.1-1.2-0.2c-0.3-0.2-0.6-0.4-0.8-0.6c-0.2-0.3-0.4-0.6-0.5-1s-0.2-0.8-0.2-1.2
			c0-0.4,0.1-0.8,0.2-1.2c0.1-0.4,0.3-0.7,0.5-1c0.2-0.3,0.5-0.5,0.8-0.7c0.3-0.2,0.7-0.2,1.2-0.2c0.4,0,0.8,0.1,1.2,0.2
			c0.3,0.2,0.6,0.4,0.8,0.7c0.2,0.3,0.4,0.6,0.5,1c0.1,0.4,0.2,0.8,0.2,1.2c0,0.4-0.1,0.8-0.2,1.2c-0.1,0.4-0.3,0.7-0.5,1
			c-0.2,0.3-0.5,0.5-0.8,0.6C107.2,33.3,106.8,33.3,106.3,33.3z M106.3,32.1c0.4,0,0.7-0.2,0.9-0.5c0.2-0.3,0.3-0.8,0.3-1.4
			c0-0.6-0.1-1-0.3-1.4c-0.2-0.3-0.5-0.5-0.9-0.5c-0.4,0-0.7,0.2-0.8,0.5c-0.2,0.3-0.3,0.8-0.3,1.4c0,0.6,0.1,1,0.3,1.4
			C105.7,32,105.9,32.1,106.3,32.1z"/>
	</g>
	<g>
		<path class="st1" d="M23.6,0C10.6,0,0,10.6,0,23.6c0,4.7,1.4,9,3.7,12.7l-2.3,7c0,0.1-0.1,0.2-0.1,0.3c0,0.1,0,0.2,0,0.4
			c0,1,0.8,1.8,1.8,1.8c0.2,0,0.4,0,0.5-0.1l0.1,0l7-2.4c3.7,2.4,8.1,3.8,12.9,3.8c13,0,23.6-10.6,23.6-23.6
			C47.2,10.6,36.6,0,23.6,0z"/>
		<circle class="st2" cx="23.5" cy="11.9" r="4.7"/>
		<path class="st2" d="M28.3,24.5c0.1-0.3,0-0.7,0-1c0-2.6-2.1-4.7-4.7-4.7c-2.4,0-4.4,1.9-4.7,4.2h0v12.2h0c0,0,0,0.1,0,0.1
			c0,2.6,2.1,4.7,4.7,4.7s4.7-2.1,4.7-4.7c0-0.4,0.1-0.7,0-1V24.5z"/>
	</g>
</g>
</svg>
